<?xml version="1.0" encoding="UTF-8"?>
<svg xmlns="http://www.w3.org/2000/svg" version="1.2" width="1200" height="1200" baseProfile="tiny-ps" viewBox="0 0 1200 1200">
  <path d="M0 0 C396 0 792 0 1200 0 C1200 396 1200 792 1200 1200 C804 1200 408 1200 0 1200 C0 804 0 408 0 0 Z " fill="#0C131B" transform="translate(0,0)"/>
  <path d="M0 0 C6.52416317 5.00984184 12.83489339 10.28733497 19.1015625 15.61376953 C22.54359935 13.96945261 25.17787011 12.01813499 28.1015625 9.55126953 C45.24857936 -4.62450499 65.07468877 -19.83182612 88.1015625 -21.38623047 C88.99488281 -21.45197266 89.88820313 -21.51771484 90.80859375 -21.58544922 C97.53409954 -21.85823197 102.27497865 -20.73153146 108.1015625 -17.38623047 C108.71773437 -17.05880859 109.33390625 -16.73138672 109.96875 -16.39404297 C118.8142828 -11.00809633 123.52925272 -0.04153543 126.1015625 9.61376953 C127.84024255 17.29287391 128.45436031 24.68885718 128.4140625 32.55126953 C128.41204834 33.63230957 128.41003418 34.71334961 128.40795898 35.82714844 C128.30285954 44.38992078 127.36573281 52.62545632 125.85546875 61.04345703 C124.93663502 66.2022657 124.51163449 71.39344914 124.1015625 76.61376953 C124.71862061 76.82880127 125.33567871 77.04383301 125.97143555 77.26538086 C144.76984818 83.88591044 164.14871951 90.9954602 179.1015625 104.61376953 C179.72675781 105.09974609 180.35195313 105.58572266 180.99609375 106.08642578 C189.37244213 112.63786166 195.69458319 122.47718166 197.515625 133.00830078 C198.16444223 143.57719194 193.15380698 153.47230895 186.37890625 161.28173828 C170.52368184 177.51770564 147.8531318 188.67633329 126.1015625 194.61376953 C125.1115625 194.61376953 124.1215625 194.61376953 123.1015625 194.61376953 C123.51728516 196.35400391 123.51728516 196.35400391 123.94140625 198.12939453 C124.30773293 199.70741716 124.67359297 201.28554817 125.0390625 202.86376953 C125.22146484 203.62173828 125.40386719 204.37970703 125.59179688 205.16064453 C128.07864494 216.01234519 128.28272802 226.95959133 128.2890625 238.05126953 C128.30130859 239.17597656 128.31355469 240.30068359 128.32617188 241.45947266 C128.35314023 257.1101056 126.27176337 273.31293287 114.89453125 285.06689453 C112.11829635 287.46207758 109.41380141 289.01898783 106.1015625 290.61376953 C105.38226562 290.96955078 104.66296875 291.32533203 103.921875 291.69189453 C89.78038348 296.31432112 74.63762228 291.02955069 61.9765625 284.80126953 C46.8865967 277.0801184 33.61499254 267.00021364 21.1015625 255.61376953 C16.38219692 259.02836933 11.89520448 262.62955437 7.4765625 266.42626953 C-9.43000916 280.7012592 -32.2116474 294.2583177 -54.89453125 293.94970703 C-63.36448015 293.00248258 -70.53224268 289.12453851 -76.21875 282.84814453 C-84.25570436 272.15712617 -87.02432216 259.53939357 -87.1015625 246.39892578 C-87.10726257 245.62552353 -87.11296265 244.85212128 -87.11883545 244.05528259 C-87.12823612 242.42236678 -87.13479968 240.78943242 -87.13867188 239.15649414 C-87.14828831 236.71415967 -87.17932091 234.27270084 -87.2109375 231.83056641 C-87.27190984 222.64689905 -86.57358042 214.11263073 -84.64355469 205.12719727 C-83.90264102 201.63359024 -83.36691695 198.15317151 -82.8984375 194.61376953 C-83.86007812 194.52095703 -84.82171875 194.42814453 -85.8125 194.33251953 C-90.5777234 193.64391725 -94.83526053 191.92605389 -99.2734375 190.11376953 C-100.14613281 189.75919678 -101.01882813 189.40462402 -101.91796875 189.03930664 C-122.83936664 180.35685061 -145.46675089 168.40061757 -154.8984375 146.61376953 C-157.34662517 139.31482493 -157.18986523 129.28063565 -153.9609375 122.30126953 C-150.6967407 116.75673244 -146.41782976 112.15568368 -141.8984375 107.61376953 C-141.26679688 106.94732422 -140.63515625 106.28087891 -139.984375 105.59423828 C-125.11034185 91.04613016 -103.27155032 83.1824656 -83.8984375 76.61376953 C-84.10118892 74.97234577 -84.30419613 73.33095331 -84.50830078 71.68969727 C-84.68801987 70.24019499 -84.86602619 68.79047951 -85.04248047 67.34057617 C-85.46728883 63.88798166 -85.92394824 60.45518928 -86.4765625 57.02001953 C-89.95513147 34.95595348 -90.08735498 11.04141148 -77.8984375 -8.38623047 C-74.77034483 -12.57069542 -72.03064243 -15.28503941 -67.3984375 -17.69873047 C-66.480625 -18.18986328 -65.5628125 -18.68099609 -64.6171875 -19.18701172 C-43.42202115 -28.53602906 -16.53999969 -12.31986742 0 0 Z " fill="#E79C0A" transform="translate(572.8984375,272.38623046875)"/>
  <path d="M0 0 C1.40102463 -0.00143509 1.40102463 -0.00143509 2.83035278 -0.00289917 C4.7916877 -0.00357479 6.75302494 -0.00176399 8.71435547 0.00244141 C11.68071637 0.0077862 14.64692505 0.00248146 17.61328125 -0.00390625 C22.22903985 -0.00826856 26.84254205 0.03111481 31.45770264 0.10412598 C33.53105682 0.12930039 35.60478799 0.11790611 37.67822266 0.10058594 C44.71413313 0.25864763 44.71413313 0.25864763 47.59423828 2.53466797 C49.15231 4.48343599 50.2894921 6.42264423 51.4453125 8.6328125 C51.89003906 9.39819336 52.33476563 10.16357422 52.79296875 10.95214844 C53.71569848 12.54732073 54.62094601 14.15272845 55.50878906 15.76757812 C56.73678906 17.98218422 58.02060385 20.14592446 59.34375 22.3046875 C64.16399792 30.20036141 68.62982608 38.29754904 73.0078125 46.4453125 C73.50216797 47.34733398 73.99652344 48.24935547 74.50585938 49.17871094 C75.1777832 50.44956543 75.1777832 50.44956543 75.86328125 51.74609375 C76.26571045 52.49673096 76.66813965 53.24736816 77.08276367 54.02075195 C78.22721859 57.29803745 77.22166932 59.20510159 75.88745117 62.2890625 C74.60318958 64.90833406 73.314215 67.52448992 72.0078125 70.1328125 C71.52078857 71.10524902 71.03376465 72.07768555 70.53198242 73.07958984 C66.24680672 81.51063036 61.59647141 89.66243339 56.55078125 97.66015625 C54.8343374 100.38736265 53.34221292 103.0573081 52.05859375 106.01171875 C50.30083614 109.61661147 49.02059439 111.70227771 45.8203125 114.1328125 C39.92706261 115.92253601 33.60611861 115.41760811 27.52490234 115.22363281 C23.22063067 115.11811093 18.92599256 115.14525615 14.62109375 115.1875 C8.28247519 115.23917417 1.94432211 115.28179699 -4.39453125 115.265625 C-5.41688118 115.26851028 -5.41688118 115.26851028 -6.45988464 115.27145386 C-17.96802756 115.2174246 -17.96802756 115.2174246 -21.19140625 112.33203125 C-21.74441406 111.50316406 -22.29742188 110.67429687 -22.8671875 109.8203125 C-23.53621094 108.81871094 -24.20523438 107.81710937 -24.89453125 106.78515625 C-25.65967043 105.56985508 -26.4211059 104.35221762 -27.1796875 103.1328125 C-27.61941895 102.43687988 -28.05915039 101.74094727 -28.51220703 101.02392578 C-34.70439108 91.16875963 -40.46066289 81.05937794 -45.9921875 70.8203125 C-46.52618164 69.8602832 -47.06017578 68.90025391 -47.61035156 67.91113281 C-49.67665298 64.00597476 -51.13582914 61.08913866 -51.33984375 56.640625 C-49.66524298 51.577354 -47.32900824 47.00906165 -44.8046875 42.3203125 C-44.26884033 41.31000977 -43.73299316 40.29970703 -43.1809082 39.25878906 C-38.56240538 30.64482319 -33.59407168 22.2922852 -28.35351562 14.04541016 C-27.26605571 12.27353808 -26.27288121 10.44472889 -25.2890625 8.61328125 C-24.73734375 7.60910156 -24.185625 6.60492188 -23.6171875 5.5703125 C-22.96556641 4.29994141 -22.96556641 4.29994141 -22.30078125 3.00390625 C-17.11851064 -1.56756267 -6.64054145 -0.01539414 0 0 Z " fill="#0E141A" transform="translate(580.1796875,350.8671875)"/>
  <path d="M0 0 C7.04074602 4.33276678 9.75871432 10.25325034 11.70703125 18.09375 C15.35235735 37.60542352 12.54128797 56.6286695 9.25 76 C5.92132749 77.1095575 4.88133269 76.87960467 1.55859375 76.07421875 C0.62184814 75.85548096 -0.31489746 75.63674316 -1.2800293 75.41137695 C-2.78110229 75.05305786 -2.78110229 75.05305786 -4.3125 74.6875 C-12.58232444 72.78298567 -20.70281712 71.31354402 -29.16430664 70.63354492 C-34.6687316 70.16329805 -37.33570473 69.66639781 -40.94140625 65.41796875 C-41.73846212 64.34608923 -42.52843576 63.26891899 -43.3125 62.1875 C-50.63359258 52.37968686 -58.6398088 43.16202487 -66.75 34 C-60.81623937 19.87955359 -37.7736606 8.42631101 -24.10546875 2.390625 C-15.62912101 -0.87869222 -8.83752143 -2.35667238 0 0 Z " fill="#0D141A" transform="translate(671.75,268)"/>
  <path d="M0 0 C1.50012334 0.27014933 3.00008578 0.54119199 4.5 0.8125 C6.01207031 1.08513672 6.01207031 1.08513672 7.5546875 1.36328125 C9.93777746 1.80369357 12.31787284 2.26050975 14.6953125 2.73046875 C16.00502841 2.98789624 17.31492928 3.24438429 18.625 3.5 C19.29249268 3.63067871 19.95998535 3.76135742 20.64770508 3.89599609 C24.30154058 4.58386828 27.92819612 5.12951032 31.62890625 5.49609375 C32.39058105 5.57214844 33.15225586 5.64820313 33.93701172 5.7265625 C35.39946894 5.86363812 36.86345014 5.98559497 38.32861328 6.08984375 C43.09581674 6.53084739 45.62513595 7.61932724 49 11 C50.43105917 12.76857313 51.80337628 14.58571924 53.125 16.4375 C58.10577976 23.2392994 63.49899912 29.61612244 69 36 C70.22932499 37.43736461 71.45852747 38.87483402 72.6875 40.3125 C73.450625 41.199375 74.21375 42.08625 75 43 C68.46915194 58.12757662 44.04256922 69.2856235 29.60546875 75.44921875 C22.17366851 78.16817006 15.3375251 79.39128164 7.6875 76.9375 C0.01820726 71.408475 -2.69072209 62.60094279 -4.46875 53.63671875 C-4.78644981 51.08188275 -4.91730272 48.57395271 -5 46 C-5.0515625 44.71738281 -5.103125 43.43476562 -5.15625 42.11328125 C-5.53556793 27.98448533 -4.21352566 13.53824114 0 0 Z " fill="#0E141A" transform="translate(506,472)"/>
  <path d="M0 0 C0.27674561 0.8156543 0.55349121 1.63130859 0.83862305 2.47167969 C1.88841846 5.55923614 2.94192783 8.64547677 3.99780273 11.73095703 C4.45009367 13.05500872 4.90098935 14.37953802 5.3503418 15.70458984 C6.00443849 17.63253071 6.66310433 19.55882992 7.32421875 21.484375 C7.54157684 22.12040649 7.75893494 22.75643799 7.98287964 23.41174316 C9.75168875 28.49748656 11.86984175 33.37167115 14.19067383 38.22753906 C15.87850738 44.00945093 13.72151995 49.26241631 11.6015625 54.67578125 C11.36593597 55.28584518 11.13030945 55.89590912 10.88754272 56.52445984 C10.14029926 58.45658973 9.38341834 60.38473231 8.625 62.3125 C5.43983979 70.45590669 2.31647502 78.55683092 0 87 C-6.89846447 85.68467412 -12.95876376 83.57902213 -19.375 80.75 C-20.30111084 80.34523438 -21.22722168 79.94046875 -22.18139648 79.5234375 C-37.04719873 72.95418863 -52.73688477 64.99992952 -61.4375 50.625 C-62.79264283 44.30100012 -63.08540653 39.01555394 -59.5625 33.375 C-48.33867324 18.56578414 -19.29386029 0 0 0 Z " fill="#0D141A" transform="translate(495,365)"/>
  <path d="M0 0 C23.19003815 5.49618368 48.24242264 16.55327231 61.9375 36.875 C63.69760178 42.05176995 63.26239159 46.3584119 60.90234375 51.296875 C48.81536575 70.8245832 22.28935272 81.282718 1 87 C-1.2217648 83.66735281 -2.04769162 80.49632054 -3.0625 76.6875 C-5.37250618 68.30566193 -8.58641291 60.41713061 -12.14086914 52.48901367 C-12.5249292 51.60189697 -12.90898926 50.71478027 -13.3046875 49.80078125 C-13.65515137 49.01872314 -14.00561523 48.23666504 -14.36669922 47.4309082 C-15.62533371 42.59967317 -13.85665429 38.20659124 -12.109375 33.69140625 C-11.73159912 32.70333984 -11.35382324 31.71527344 -10.96459961 30.69726562 C-10.56378174 29.66279297 -10.16296387 28.62832031 -9.75 27.5625 C-6.26680563 18.4401448 -2.96692911 9.30333549 0 0 Z " fill="#0D131A" transform="translate(691,365)"/>
  <path d="M0 0 C2.46744575 13.26580208 4.39789957 26.35739414 4.4375 39.875 C4.44716797 40.91188965 4.45683594 41.9487793 4.46679688 43.01708984 C4.35882591 52.89484545 2.70087926 63.66948982 -3 72 C-8.60016629 77.20015442 -12.58249565 77.4161239 -20.08203125 77.33203125 C-39.6503036 75.67370308 -62.21971979 59.0809282 -75 45 C-75 40.91341664 -73.49503942 40.09983094 -70.6875 37.1875 C-66.68041219 32.93709894 -62.96302882 28.54646672 -59.375 23.9375 C-58.90400879 23.34767334 -58.43301758 22.75784668 -57.94775391 22.15014648 C-55.83162074 19.47890743 -53.94868318 16.91175319 -52.23046875 13.95703125 C-50.07059485 10.45166214 -48.23888498 7.6197784 -44.09326172 6.47216797 C-39.99700002 5.81578015 -35.89683939 5.62753756 -31.7578125 5.42578125 C-25.31909153 5.07157288 -19.15992982 3.76352003 -12.875 2.375 C-11.82570313 2.14385498 -10.77640625 1.91270996 -9.6953125 1.67456055 C-7.83331262 1.26401543 -5.97231423 0.84887571 -4.11279297 0.42724609 C-2 0 -2 0 0 0 Z " fill="#0D131A" transform="translate(681,472)"/>
  <path d="M0 0 C19.66033692 5.09941369 35.7876773 19.26197075 51 32 C49.5207545 35.38770213 47.59166247 37.69491101 45.0625 40.375 C40.34711145 45.51560877 36.04492685 50.90296596 31.7734375 56.41015625 C31.31759277 56.97428223 30.86174805 57.5384082 30.39208984 58.11962891 C28.92434875 60.00891438 28.92434875 60.00891438 27.75244141 62.31396484 C25.22557826 66.52711714 22.89256183 68.9633833 18.11962891 70.26196289 C13.32803594 71.29633466 8.48642176 71.90028722 3.625 72.5 C1.9500178 72.73604085 0.27552704 72.97559701 -1.3984375 73.21875 C-8.91694961 74.29069114 -16.45061748 75.17599035 -24 76 C-30.50854912 57.95845176 -32.94056654 31.11100625 -26 13 C-25.70996094 12.236875 -25.41992188 11.47375 -25.12109375 10.6875 C-20.15499109 -0.6160977 -11.30474473 -1.89947594 0 0 Z " fill="#0D131A" transform="translate(530,268)"/>
  <path d="M0 0 C0.62132812 0.391875 1.24265625 0.78375 1.8828125 1.1875 C2.50414062 1.538125 3.12546875 1.88875 3.765625 2.25 C10.38536144 6.37658895 14.98557518 13.55673128 17.40625 20.90625 C19.47559565 30.81197018 17.78374985 39.41740158 12.8828125 48.1875 C7.96211614 55.02404126 0.25206395 60.5217752 -8.1171875 62.1875 C-19.60176845 63.48838503 -28.10900026 61.6340803 -37.2734375 54.51171875 C-44.80658251 47.5690957 -48.02560329 38.3126661 -48.4921875 28.25 C-48.31528406 20.02399011 -44.04137886 12.26365321 -38.40234375 6.40625 C-28.10658798 -3.21671381 -13.01175516 -7.12430701 0 0 Z " fill="#E99C0A" transform="translate(608.1171875,378.8125)"/>
  <path d="M0 0 C4.39580891 0.87916178 7.88513122 2.15779422 11.87890625 4.03515625 C12.88702614 4.50059341 12.88702614 4.50059341 13.91551208 4.97543335 C15.37089828 5.64779789 16.82521327 6.32248498 18.27856445 6.99923706 C22.20257458 8.82602002 26.13462598 10.63532835 30.06640625 12.4453125 C30.8813858 12.82088791 31.69636536 13.19646332 32.53604126 13.5834198 C41.31865359 17.62233553 50.15748189 21.53198524 59 25.4375 C71.08714652 30.78092035 83.11457118 36.21789949 95 42 C95 46.62 95 51.24 95 56 C82.37599609 62.50327474 69.49423865 68.32647803 56.52148438 74.09558105 C48.12896915 77.82893622 39.7492811 81.59082915 31.37133789 85.35675049 C28.73326926 86.54193756 26.09420541 87.72488742 23.45507812 88.90771484 C21.8072394 89.64799564 20.15945066 90.38838773 18.51171875 91.12890625 C17.39926033 91.62664803 17.39926033 91.62664803 16.264328 92.13444519 C11.99084246 94.05831797 7.79866332 96.08737394 3.64607239 98.26109314 C2 99 2 99 0 99 C0 92.73 0 86.46 0 80 C6.66839959 77.10444611 13.33692397 74.20918001 20.00565529 71.31439018 C23.10377972 69.9695309 26.20185395 68.62455623 29.29980469 67.27929688 C35.16133222 64.73409767 41.02355688 62.19054562 46.88769531 59.65136719 C50.50625325 58.08417045 54.12122314 56.50967905 57.72949219 54.91894531 C58.71941666 54.48559372 58.71941666 54.48559372 59.7293396 54.04348755 C61.3567344 53.33081547 62.98196132 52.61319809 64.60693359 51.89501953 C67 51 67 51 70 51 C69.3166379 47.82335455 69.3166379 47.82335455 66.60864258 46.67236328 C65.54798584 46.22618652 64.4873291 45.78000977 63.39453125 45.3203125 C62.19723389 44.80976318 60.99993652 44.29921387 59.76635742 43.77319336 C58.44844945 43.22368883 57.13049582 42.67429379 55.8125 42.125 C54.46476676 41.55395646 53.11752321 40.98175592 51.77075195 40.40844727 C48.95223936 39.20968922 46.13163972 38.01604272 43.30957031 36.82568359 C37.06350724 34.18599728 30.84534051 31.48208569 24.62631226 28.77947998 C22.73110692 27.95643745 20.83507251 27.13533851 18.9387207 26.31494141 C12.61094332 23.57576057 6.29507266 20.81355337 0 18 C0 12.06 0 6.12 0 0 Z " fill="#C1B6A4" transform="translate(1058,772)"/>
  <path d="M0 0 C0 5.94 0 11.88 0 18 C-15.58120371 24.97784187 -31.20429231 31.85072475 -46.875 38.625 C-48.09864761 39.15432129 -48.09864761 39.15432129 -49.34701538 39.69433594 C-51.68666043 40.70603611 -54.02680179 41.71657703 -56.3671875 42.7265625 C-57.0651091 43.02817291 -57.7630307 43.32978333 -58.48210144 43.64053345 C-61.96952613 45.14316305 -65.46592222 46.61042416 -69 48 C-69 48.66 -69 49.32 -69 50 C-68.05731262 50.40890221 -68.05731262 50.40890221 -67.09558105 50.82606506 C-61.09626897 53.4283935 -55.0970632 56.03096685 -49.09796906 58.63379765 C-46.01572685 59.97108233 -42.93343566 61.30825382 -39.85107422 62.64526367 C-26.55890921 68.41096304 -13.2694674 74.18222978 0 80 C0 86.27 0 92.54 0 99 C-14.05899369 92.98916611 -27.99681214 86.74582792 -41.88970947 80.36328125 C-59.19031663 72.41855707 -76.58831399 64.69758253 -94 57 C-94 52.05 -94 47.1 -94 42 C-82.19137348 35.96601209 -70.21973038 30.37220454 -58.125 24.9375 C-56.29228279 24.11164975 -54.45960102 23.28572085 -52.62695312 22.4597168 C-47.08794289 19.96574408 -41.54485735 17.4809423 -36 15 C-35.12855347 14.61001831 -34.25710693 14.22003662 -33.35925293 13.8182373 C-28.48780596 11.63956616 -23.61364313 9.46715173 -18.73529053 7.3039856 C-17.25064131 6.6454545 -15.76646539 5.98585528 -14.28277588 5.32516479 C-12.24226895 4.41737474 -10.19965527 3.51452451 -8.15625 2.61328125 C-7.00962891 2.10579346 -5.86300781 1.59830566 -4.68164062 1.07543945 C-2 0 -2 0 0 0 Z " fill="#C2B7A5" transform="translate(142,772)"/>
  <path d="M0 0 C1.99310218 0.39333681 3.97095088 0.86524054 5.9375 1.375 C7.01902344 1.65085937 8.10054687 1.92671875 9.21484375 2.2109375 C12 3 12 3 14 4 C13.19613194 9.65544823 11.76151544 15.10856476 10.3125 20.625 C10.0455835 21.64480957 9.77866699 22.66461914 9.50366211 23.71533203 C7.58698953 30.9600956 5.50805359 38.14180926 3.31933594 45.30834961 C0.34001894 55.08915898 -2.37381785 64.94310689 -5.10888672 74.79443359 C-6.56481855 80.03179934 -8.03293133 85.26574522 -9.5 90.5 C-10.08339373 92.58331642 -10.66672701 94.66664977 -11.25 96.75 C-14.75 109.25 -14.75 109.25 -15.62524414 112.37573242 C-16.20786029 114.4565973 -16.79038001 116.53748918 -17.37280273 118.6184082 C-18.84131468 123.86473588 -20.31156158 129.11056627 -21.78515625 134.35546875 C-25.58469573 147.88723493 -29.32431659 161.43405461 -33 175 C-43.55808656 173.07289294 -43.55808656 173.07289294 -48 171 C-46.20286005 162.50299621 -43.96176767 154.18803375 -41.54443359 145.85107422 C-39.2906493 138.06589444 -37.13856704 130.25503205 -35 122.4375 C-32.72499758 114.13398302 -30.39730028 105.85685568 -27.875 97.625 C-25.43466179 89.66028058 -23.31293169 81.634699 -21.24951172 73.56494141 C-19.64241234 67.32813946 -17.89102372 61.15629175 -16 55 C-13.8195912 47.89592717 -11.84792887 40.76020404 -10 33.5625 C-7.98658395 25.72301485 -5.89927451 17.91106216 -3.6875 10.125 C-3.43291016 9.22080322 -3.17832031 8.31660645 -2.91601562 7.38500977 C-2.56120117 6.14642212 -2.56120117 6.14642212 -2.19921875 4.8828125 C-1.99127686 4.15465332 -1.78333496 3.42649414 -1.5690918 2.67626953 C-1 1 -1 1 0 0 Z " fill="#C2B6A5" transform="translate(1037,739)"/>
  <path d="M0 0 C27.33333333 0 27.33333333 0 36 6 C39.44827385 9.62510841 40.29109954 12.50290212 40.5 17.375 C40.2848514 22.6461406 39.2360507 26.78122224 36 31 C32.27876182 34.10103182 30.88646075 35 26 35 C26.45439453 35.7520874 26.90878906 36.5041748 27.37695312 37.27905273 C29.05595674 40.06038679 30.73299514 42.842893 32.40869141 45.6262207 C33.13543921 46.83242696 33.86297686 48.03815769 34.59130859 49.2434082 C35.6358481 50.97222767 36.67734787 52.70288259 37.71875 54.43359375 C38.34716797 55.47572021 38.97558594 56.51784668 39.62304688 57.59155273 C41 60 41 60 41 61 C37.7 61 34.4 61 31 61 C28.82642556 57.21225306 26.6623228 53.41917971 24.5 49.625 C23.87996094 48.54476562 23.25992188 47.46453125 22.62109375 46.3515625 C22.03457031 45.3203125 21.44804688 44.2890625 20.84375 43.2265625 C20.29912109 42.27346191 19.75449219 41.32036133 19.19335938 40.33837891 C18 38 18 38 18 36 C14.7 36 11.4 36 8 36 C8 44.25 8 52.5 8 61 C5.36 61 2.72 61 0 61 C0 40.87 0 20.74 0 0 Z " fill="#C0B5A3" transform="translate(516,647)"/>
  <path d="M0 0 C2.97 0 5.94 0 9 0 C21.69937291 27.20712723 21.69937291 27.20712723 26.8125 38.625 C27.14314453 39.35702637 27.47378906 40.08905273 27.81445312 40.84326172 C30 45.76074219 30 45.76074219 30 48 C30.66 48 31.32 48 32 48 C32.17042816 47.45653931 32.34085632 46.91307861 32.51644897 46.35314941 C34.34436881 40.680792 36.52355066 35.27163752 38.9765625 29.84375 C39.34727875 29.01540649 39.717995 28.18706299 40.09994507 27.33361816 C40.87611455 25.60170524 41.65434628 23.87071514 42.43457031 22.140625 C43.63337059 19.48143227 44.82496846 16.81909763 46.015625 14.15625 C46.77302052 12.46856281 47.53081831 10.78105607 48.2890625 9.09375 C48.6463443 8.29594116 49.0036261 7.49813232 49.37173462 6.67614746 C51.88404661 1.11595339 51.88404661 1.11595339 53 0 C55.64 0 58.28 0 61 0 C61 19.8 61 39.6 61 60 C58.69 60 56.38 60 54 60 C53.67 45.81 53.34 31.62 53 17 C48.99014148 26.28669831 48.99014148 26.28669831 44.98388672 35.57495117 C41.43769331 43.77308632 37.78673391 51.90937449 34 60 C32.02 60 30.04 60 28 60 C21.397241 46.12025661 15.22270289 32.05352001 9 18 C8.67 31.86 8.34 45.72 8 60 C5.36 60 2.72 60 0 60 C0 40.2 0 20.4 0 0 Z " fill="#C1B6A4" transform="translate(770,648)"/>
  <path d="M0 0 C3.3 0 6.6 0 10 0 C10.28085449 0.76739502 10.56170898 1.53479004 10.85107422 2.32543945 C11.94410883 5.3112198 13.03765851 8.29681101 14.13143921 11.28231812 C14.62631171 12.6334937 15.12096173 13.98475078 15.61538696 15.33609009 C18.37062201 22.8664807 21.13886449 30.39134405 23.95703125 37.8984375 C24.41674316 39.12651123 24.87645508 40.35458496 25.35009766 41.61987305 C26.22982465 43.96661466 27.11350532 46.3118786 28.00146484 48.65551758 C28.39672363 49.71150146 28.79198242 50.76748535 29.19921875 51.85546875 C29.54815186 52.77996826 29.89708496 53.70446777 30.2565918 54.65698242 C31 57 31 57 31 60 C28.36 60 25.72 60 23 60 C22.32694982 58.39850114 21.66177773 56.79368971 21 55.1875 C20.62875 54.29417969 20.2575 53.40085937 19.875 52.48046875 C19 50 19 50 19 47 C9.76 47 0.52 47 -9 47 C-9.33 48.98 -9.66 50.96 -10 53 C-10.86173773 55.42000959 -11.92410684 57.66110182 -13 60 C-15.64 60 -18.28 60 -21 60 C-20.42007931 55.99049126 -19.55450144 52.37748685 -18.15820312 48.57714844 C-17.78111206 47.54297791 -17.404021 46.50880737 -17.01550293 45.44329834 C-16.60819946 44.34310364 -16.200896 43.24290894 -15.78125 42.109375 C-15.36331177 40.9684137 -14.94537354 39.82745239 -14.51477051 38.6519165 C-13.18142676 35.01611849 -11.84066274 31.38310468 -10.5 27.75 C-9.59719972 25.28922994 -8.69485078 22.82829425 -7.79296875 20.3671875 C-6.93529567 18.03110316 -6.07723615 15.69516066 -5.21875 13.359375 C-4.6077948 11.69693756 -4.6077948 11.69693756 -3.98449707 10.00091553 C-3.60740601 8.97935364 -3.23031494 7.95779175 -2.84179688 6.90527344 C-2.50950073 6.00403748 -2.17720459 5.10280151 -1.83483887 4.17425537 C-1 2 -1 2 0 0 Z " fill="#BDB2A1" transform="translate(614,648)"/>
  <path d="M0 0 C3.3 0 6.6 0 10 0 C12.83811495 7.00585098 15.52916565 14.04781566 18.109375 21.15234375 C18.66688446 22.68526817 18.66688446 22.68526817 19.23565674 24.24916077 C20.01301179 26.38915941 20.78942884 28.52949899 21.56494141 30.67016602 C22.75610852 33.95434185 23.95417668 37.23595067 25.15234375 40.51757812 C25.90927961 42.60401237 26.66580489 44.69059562 27.421875 46.77734375 C27.96083405 48.24916359 27.96083405 48.24916359 28.51068115 49.75071716 C28.83812317 50.659189 29.16556519 51.56766083 29.50292969 52.50366211 C29.79286804 53.30178818 30.0828064 54.09991425 30.38153076 54.92222595 C31 57 31 57 31 60 C28.36 60 25.72 60 23 60 C22.32942113 58.2097939 21.6636531 56.41778511 21 54.625 C20.62875 53.62726562 20.2575 52.62953125 19.875 51.6015625 C19 49 19 49 19 47 C5.635 47.495 5.635 47.495 -8 48 C-9.65 51.96 -11.3 55.92 -13 60 C-15.64 60 -18.28 60 -21 60 C-18.87244838 52.58577589 -16.40077485 45.33510698 -13.76953125 38.0859375 C-13.37424728 36.99028473 -12.97896332 35.89463196 -12.57170105 34.76577759 C-11.32114735 31.30127104 -10.06688698 27.83812024 -8.8125 24.375 C-7.95873807 22.01180772 -7.10522003 19.64852731 -6.25195312 17.28515625 C-4.17078687 11.52241487 -2.08629756 5.76088556 0 0 Z " fill="#BEB2A1" transform="translate(890,648)"/>
  <path d="M0 0 C3.3 0 6.6 0 10 0 C12.83811495 7.00585098 15.52916565 14.04781566 18.109375 21.15234375 C18.66688446 22.68526817 18.66688446 22.68526817 19.23565674 24.24916077 C20.01301179 26.38915941 20.78942884 28.52949899 21.56494141 30.67016602 C22.75610852 33.95434185 23.95417668 37.23595067 25.15234375 40.51757812 C25.90927961 42.60401237 26.66580489 44.69059562 27.421875 46.77734375 C27.96083405 48.24916359 27.96083405 48.24916359 28.51068115 49.75071716 C28.83812317 50.659189 29.16556519 51.56766083 29.50292969 52.50366211 C29.79286804 53.30178818 30.0828064 54.09991425 30.38153076 54.92222595 C31 57 31 57 31 60 C28.36 60 25.72 60 23 60 C22.32942113 58.2097939 21.6636531 56.41778511 21 54.625 C20.62875 53.62726562 20.2575 52.62953125 19.875 51.6015625 C19 49 19 49 19 47 C5.635 47.495 5.635 47.495 -8 48 C-9.65 51.96 -11.3 55.92 -13 60 C-15.64 60 -18.28 60 -21 60 C-18.87244838 52.58577589 -16.40077485 45.33510698 -13.76953125 38.0859375 C-13.37424728 36.99028473 -12.97896332 35.89463196 -12.57170105 34.76577759 C-11.32114735 31.30127104 -10.06688698 27.83812024 -8.8125 24.375 C-7.95873807 22.01180772 -7.10522003 19.64852731 -6.25195312 17.28515625 C-4.17078687 11.52241487 -2.08629756 5.76088556 0 0 Z " fill="#BEB2A1" transform="translate(276,648)"/>
  <path d="M0 0 C2.64 0 5.28 0 8 0 C8 20.13 8 40.26 8 61 C0 61 0 61 -2.01156616 59.42570496 C-2.48518585 58.68862808 -2.95880554 57.95155121 -3.44677734 57.19213867 C-4.00029877 56.36095016 -4.55382019 55.52976166 -5.12411499 54.67338562 C-5.97146713 53.30945427 -5.97146713 53.30945427 -6.8359375 51.91796875 C-7.44136383 50.99284988 -8.04679016 50.06773102 -8.67056274 49.11457825 C-10.59872431 46.15520383 -12.48685926 43.17253085 -14.375 40.1875 C-15.66800597 38.18779101 -16.96355132 36.18972152 -18.26171875 34.19335938 C-21.11497533 29.79549296 -23.94318981 25.38267369 -26.75033569 20.95524597 C-27.81408293 19.290889 -28.90432426 17.64351361 -30 16 C-30.33 30.85 -30.66 45.7 -31 61 C-33.64 61 -36.28 61 -39 61 C-39 41.2 -39 21.4 -39 1 C-31 1 -31 1 -28.8203125 2.84375 C-28.26085937 3.7203125 -27.70140625 4.596875 -27.125 5.5 C-26.13113281 7.01400391 -26.13113281 7.01400391 -25.1171875 8.55859375 C-24.40920007 9.70433679 -23.70355976 10.85153277 -23 12 C-22.23292036 13.22077515 -21.46465361 14.44080503 -20.6953125 15.66015625 C-18.12130754 19.76787344 -15.56097532 23.88414681 -13 28 C-9.04 33.94 -5.08 39.88 -1 46 C-0.67 30.82 -0.34 15.64 0 0 Z " fill="#BFB3A2" transform="translate(998,647)"/>
  <path d="M0 0 C2.64 0 5.28 0 8 0 C8 20.13 8 40.26 8 61 C5.36 61 2.72 61 0 61 C0 52.09 0 43.18 0 34 C-9.9 34 -19.8 34 -30 34 C-30 42.91 -30 51.82 -30 61 C-32.64 61 -35.28 61 -38 61 C-38 41.2 -38 21.4 -38 1 C-35.69 1 -33.38 1 -31 1 C-31 9.58 -31 18.16 -31 27 C-20.77 27 -10.54 27 0 27 C0 18.09 0 9.18 0 0 Z " fill="#BDB2A1" transform="translate(721,647)"/>
  <path d="M0 0 C4.31465366 2.54474848 7.14075291 5.58830388 9.44140625 10.09375 C9.44140625 11.41375 9.44140625 12.73375 9.44140625 14.09375 C4.25572149 14.62110777 4.25572149 14.62110777 1.44140625 14.09375 C-0.72122289 12.30676364 -1.93482335 10.43388969 -3.55859375 8.09375 C-7.27214761 6.23697307 -11.50543158 6.65471046 -15.55859375 7.09375 C-18.80650139 8.35694994 -18.80650139 8.35694994 -20.55859375 11.09375 C-21.16582256 14.05250216 -20.95171461 15.99792326 -20.55859375 19.09375 C-18.10450009 22.74295991 -13.83883608 23.65132318 -9.87109375 25.03125 C-8.42348543 25.55847737 -6.97685535 26.08839898 -5.53125 26.62109375 C-4.8417627 26.87487793 -4.15227539 27.12866211 -3.44189453 27.39013672 C1.40566591 29.20121647 5.30468094 30.90018842 8.94140625 34.71875 C11.28878057 40.00034223 11.62834205 44.89941586 9.59375 50.375 C7.26691548 54.60274001 4.4798151 57.56402889 0.015625 59.46875 C-6.71715416 61.10341565 -15.36795352 61.77231566 -21.68359375 58.46875 C-25.8967367 54.98832756 -29.04356274 52.23310958 -30.37109375 46.71875 C-30.43296875 45.8525 -30.49484375 44.98625 -30.55859375 44.09375 C-27.58859375 44.09375 -24.61859375 44.09375 -21.55859375 44.09375 C-21.21828125 45.2075 -21.21828125 45.2075 -20.87109375 46.34375 C-19.20990674 49.82433231 -17.91435453 51.16597253 -14.55859375 53.09375 C-9.73127091 53.80339274 -4.80990316 53.67030116 -0.55859375 51.09375 C1.37287398 48.61043434 1.48444114 46.74947091 1.87890625 43.59375 C1.75775278 40.07660947 1.75775278 40.07660947 -0.37109375 37.90625 C-4.89285809 35.33505067 -9.63810098 33.74311574 -14.55859375 32.09375 C-20.94139903 29.95179679 -25.72119807 27.84984352 -29.55859375 22.09375 C-30.24134175 16.59207135 -30.28336831 11.6548029 -27.93359375 6.59375 C-20.61860209 -1.10624122 -10.18309822 -3.60683784 0 0 Z " fill="#C0B4A3" transform="translate(208.55859375,647.90625)"/>
  <path d="M0 0 C11.22 0 22.44 0 34 0 C34 1.98 34 3.96 34 6 C25.42 6 16.84 6 8 6 C8 12.6 8 19.2 8 26 C14.93 26 21.86 26 29 26 C29 28.31 29 30.62 29 33 C22.07 33 15.14 33 8 33 C8 41.91 8 50.82 8 60 C5.36 60 2.72 60 0 60 C0 40.2 0 20.4 0 0 Z " fill="#BDB2A1" transform="translate(394,648)"/>
  <path d="M0 0 C17.27678571 -0.80357143 17.27678571 -0.80357143 21.5625 2.4375 C23.85688601 5.01944906 24.44745194 7.13754074 24.625 10.5625 C24.29011618 14.39434374 23.59928079 17.05414843 21 20 C16.34359374 22.87560803 12.47174284 23.38795851 7.125 23.1875 C4.77375 23.125625 2.4225 23.06375 0 23 C0 15.41 0 7.82 0 0 Z " fill="#0D141C" transform="translate(524,654)"/>
  <path d="M0 0 C2.64 0 5.28 0 8 0 C8 20.13 8 40.26 8 61 C5.36 61 2.72 61 0 61 C0 40.87 0 20.74 0 0 Z " fill="#BAAF9F" transform="translate(345,647)"/>
  <path d="M0 0 C4.3751418 1.63016101 6.96406541 4.92713234 10 8.3125 C10.52078125 8.88162109 11.0415625 9.45074219 11.578125 10.03710938 C20 19.29904514 20 19.29904514 20 22 C7.46 22 -5.08 22 -18 22 C-16.4895844 18.97916879 -15.4373228 17.13700588 -13.3203125 14.6875 C-12.80339844 14.08679688 -12.28648437 13.48609375 -11.75390625 12.8671875 C-11.21636719 12.25101562 -10.67882812 11.63484375 -10.125 11 C-9.59519531 10.38382812 -9.06539062 9.76765625 -8.51953125 9.1328125 C-5.78464369 5.97038668 -3.00945039 2.90768154 0 0 Z " fill="#11161A" transform="translate(592,313)"/>
  <path d="M0 0 C3.546166 3.546166 4.51930553 8.69976238 6.125 13.375 C6.68380859 14.95667969 6.68380859 14.95667969 7.25390625 16.5703125 C7.60582031 17.58609375 7.95773437 18.601875 8.3203125 19.6484375 C8.64273926 20.57833496 8.96516602 21.50823242 9.29736328 22.46630859 C10 25 10 25 10 29 C-9.96810934 33.40774487 -9.96810934 33.40774487 -19 34 C-14.78985713 26.22381045 -10.48665538 18.5046049 -6.125 10.8125 C-5.53203125 9.76513672 -4.9390625 8.71777344 -4.328125 7.63867188 C-2.8861814 5.09201341 -1.44346348 2.54579719 0 0 Z " fill="#13171A" transform="translate(666,428)"/>
  <path d="M0 0 C12.54 0 25.08 0 38 0 C36.4895844 3.02083121 35.4373228 4.86299412 33.3203125 7.3125 C32.80339844 7.91320312 32.28648437 8.51390625 31.75390625 9.1328125 C31.21636719 9.74898438 30.67882812 10.36515625 30.125 11 C29.33029297 11.92425781 29.33029297 11.92425781 28.51953125 12.8671875 C25.78464369 16.02961332 23.00945039 19.09231846 20 22 C16.94049251 20.65424721 15.04650752 19.22614437 12.87109375 16.69921875 C12.31099609 16.05146484 11.75089844 15.40371094 11.17382812 14.73632812 C10.3143457 13.7221582 10.3143457 13.7221582 9.4375 12.6875 C8.86064453 12.02298828 8.28378906 11.35847656 7.68945312 10.67382812 C4.69713676 7.18451804 2.40049312 4.00082187 0 0 Z " fill="#0F151A" transform="translate(574,482)"/>
  <path d="M0 0 C-1.54954705 4.32889333 -3.78054603 8.10804364 -6.1875 12 C-10.38180567 18.87435681 -14.25994619 25.86864337 -18 33 C-18.66 33 -19.32 33 -20 33 C-21.50776616 28.89864435 -23.00487576 24.79347933 -24.5 20.6875 C-24.92925781 19.52025391 -25.35851562 18.35300781 -25.80078125 17.15039062 C-26.20683594 16.03212891 -26.61289062 14.91386719 -27.03125 13.76171875 C-27.40830078 12.73006592 -27.78535156 11.69841309 -28.17382812 10.63549805 C-29 8 -29 8 -29 5 C-19.53132165 2.44089774 -9.85766039 0 0 0 Z " fill="#11161A" transform="translate(539,355)"/>
  <path d="M0 0 C0.66 0 1.32 0 2 0 C2.54527344 1.06476563 3.09054687 2.12953125 3.65234375 3.2265625 C7.83726383 11.30917475 12.16484204 19.15521634 17.25561523 26.70751953 C20 30.80967838 20 30.80967838 20 33 C10.43299944 32.38277416 1.30752043 30.1798659 -8 28 C-7.50447598 21.08360137 -5.95956983 15.37502081 -3.4375 8.9375 C-3.10814453 8.07189453 -2.77878906 7.20628906 -2.43945312 6.31445312 C-1.63561991 4.20584717 -0.8224288 2.10140651 0 0 Z " fill="#12161A" transform="translate(519,429)"/>
  <path d="M0 0 C3.33434596 0.4511493 6.66724706 0.91224125 10 1.375 C10.93457031 1.50132812 11.86914062 1.62765625 12.83203125 1.7578125 C18.33811231 2.52789377 23.6334345 3.54444568 29 5 C28.3490961 8.64795474 27.38201944 12.02569081 26.15234375 15.51953125 C25.61577148 17.0519043 25.61577148 17.0519043 25.06835938 18.61523438 C24.50858398 20.19788086 24.50858398 20.19788086 23.9375 21.8125 C23.56044922 22.88693359 23.18339844 23.96136719 22.79492188 25.06835938 C21.86625342 27.71330118 20.93451811 30.35712054 20 33 C17.50168359 30.71653329 15.91759025 28.37145996 14.2578125 25.4296875 C13.74863281 24.5325 13.23945312 23.6353125 12.71484375 22.7109375 C12.19019531 21.77507812 11.66554688 20.83921875 11.125 19.875 C10.60808594 18.96234375 10.09117187 18.0496875 9.55859375 17.109375 C6.34268511 11.42280607 3.16458992 5.71525996 0 0 Z " fill="#10151A" transform="translate(647,355)"/>
  <path d="M0 0 C12.52941176 0 12.52941176 0 17 4 C18.96881005 7.93762009 18.45834498 12.70766117 18 17 C15.90219061 20.61691275 14.95125774 21.68291409 11 23 C7.37 23 3.74 23 0 23 C0 15.41 0 7.82 0 0 Z " fill="#10151A" transform="translate(327,802)"/>
  <path d="M0 0 C11.35822191 -0.49383574 11.35822191 -0.49383574 14.40625 1.8515625 C16 4 16 4 15.75 6.625 C15.5025 7.40875 15.255 8.1925 15 9 C14.81509993 11.32357511 14.81509993 11.32357511 17 14 C16.8125 17.5625 16.8125 17.5625 16 21 C11.0754853 24.2830098 5.82305673 23.11530805 0 23 C0 15.41 0 7.82 0 0 Z " fill="#EA9D0A" transform="translate(754,802)"/>
  <path d="M0 0 C1.94505138 2.91757707 2.98249076 5.40715618 4.1640625 8.69140625 C4.56367187 9.80064453 4.96328125 10.90988281 5.375 12.05273438 C5.99375 13.79006836 5.99375 13.79006836 6.625 15.5625 C7.04523437 16.72458984 7.46546875 17.88667969 7.8984375 19.08398438 C11 27.73915635 11 27.73915635 11 30 C4.07 30 -2.86 30 -10 30 C-7.74787411 19.86543351 -7.74787411 19.86543351 -6.30859375 15.78125 C-6.00373047 14.91242187 -5.69886719 14.04359375 -5.38476562 13.1484375 C-4.91586914 11.83746094 -4.91586914 11.83746094 -4.4375 10.5 C-3.96280273 9.14261719 -3.96280273 9.14261719 -3.47851562 7.7578125 C-1.13757622 1.13757622 -1.13757622 1.13757622 0 0 Z " fill="#121820" transform="translate(895,658)"/>
  <path d="M0 0 C0.66 0 1.32 0 2 0 C3.51041757 4.07955572 5.0065145 8.16421836 6.5 12.25 C6.92925781 13.40886719 7.35851562 14.56773437 7.80078125 15.76171875 C8.40986328 17.43427734 8.40986328 17.43427734 9.03125 19.140625 C9.40830078 20.16704102 9.78535156 21.19345703 10.17382812 22.25097656 C11 25 11 25 11 29 C4.07 29 -2.86 29 -10 29 C-8.73796151 25.19093836 -7.47501942 21.38219553 -6.2097168 17.57421875 C-5.77948756 16.27850006 -5.34979683 14.98260245 -4.9206543 13.68652344 C-4.30398652 11.82440063 -3.68522569 9.96297138 -3.06640625 8.1015625 C-2.69459229 6.98088379 -2.32277832 5.86020508 -1.93969727 4.70556641 C-1 2 -1 2 0 0 Z " fill="#121920" transform="translate(618,659)"/>
  <path d="M0 0 C1.94505138 2.91757707 2.98249076 5.40715618 4.1640625 8.69140625 C4.56367188 9.80064453 4.96328125 10.90988281 5.375 12.05273438 C5.99375 13.79006836 5.99375 13.79006836 6.625 15.5625 C7.04523438 16.72458984 7.46546875 17.88667969 7.8984375 19.08398438 C11 27.73915635 11 27.73915635 11 30 C4.07 30 -2.86 30 -10 30 C-7.74787411 19.86543351 -7.74787411 19.86543351 -6.30859375 15.78125 C-6.00373047 14.91242187 -5.69886719 14.04359375 -5.38476562 13.1484375 C-4.91586914 11.83746094 -4.91586914 11.83746094 -4.4375 10.5 C-3.96280273 9.14261719 -3.96280273 9.14261719 -3.47851562 7.7578125 C-1.13757622 1.13757622 -1.13757622 1.13757622 0 0 Z " fill="#121820" transform="translate(281,658)"/>
  <path d="M0 0 C0.66 0 1.32 0 2 0 C3.32 4.95 4.64 9.9 6 15 C7.59035502 11.81928996 8.64848268 9.12342347 9.625 5.75 C9.88539063 4.85796875 10.14578125 3.9659375 10.4140625 3.046875 C10.60742188 2.37140625 10.80078125 1.6959375 11 1 C12.32 1 13.64 1 15 1 C15.27714844 1.99902344 15.55429687 2.99804688 15.83984375 4.02734375 C16.20555549 5.33077791 16.57145038 6.63416069 16.9375 7.9375 C17.11990234 8.59685547 17.30230469 9.25621094 17.49023438 9.93554688 C18.22596101 13.23821173 18.22596101 13.23821173 20 16 C21.32 10.72 22.64 5.44 24 0 C24.66 0 25.32 0 26 0 C25.48400816 7.8822202 23.9078547 15.34458305 22 23 C20.35 23 18.7 23 17 23 C16.49193553 21.27318563 15.99389533 19.54342021 15.5 17.8125 C15.2215625 16.84957031 14.943125 15.88664063 14.65625 14.89453125 C14.03322392 12.14654124 13.87697188 9.80401584 14 7 C13.34 7 12.68 7 12 7 C11.87882813 7.65226563 11.75765625 8.30453125 11.6328125 8.9765625 C10.71056011 13.78646342 9.69832723 18.39025465 8 23 C6.68 23 5.36 23 4 23 C3.322781 20.48159185 2.65808826 17.96091276 2 15.4375 C1.80921875 14.73302734 1.6184375 14.02855469 1.421875 13.30273438 C0.24165914 8.72939791 -0.19856973 4.72223635 0 0 Z " fill="#D18D0B" transform="translate(704,802)"/>
  <path d="M0 0 C11 0 11 0 15 3 C15.25 6.6875 15.25 6.6875 15 10 C14.01 10.33 13.02 10.66 12 11 C12.28875 11.61488281 12.5775 12.22976563 12.875 12.86328125 C13.24625 13.67152344 13.6175 14.47976563 14 15.3125 C14.37125 16.11300781 14.7425 16.91351562 15.125 17.73828125 C16 20 16 20 16 23 C15.01 23 14.02 23 13 23 C12.01 20.03 11.02 17.06 10 14 C7.69 13.67 5.38 13.34 3 13 C3 16.3 3 19.6 3 23 C2.01 23 1.02 23 0 23 C0 15.41 0 7.82 0 0 Z " fill="#D38E0B" transform="translate(564,802)"/>
  <path d="M0 0 C11 0 11 0 15 3 C15.25 6.6875 15.25 6.6875 15 10 C14.01 10.33 13.02 10.66 12 11 C12.28875 11.61488281 12.5775 12.22976563 12.875 12.86328125 C13.24625 13.67152344 13.6175 14.47976563 14 15.3125 C14.37125 16.11300781 14.7425 16.91351562 15.125 17.73828125 C16 20 16 20 16 23 C15.01 23 14.02 23 13 23 C12.01 20.03 11.02 17.06 10 14 C7.69 13.67 5.38 13.34 3 13 C3 16.3 3 19.6 3 23 C2.01 23 1.02 23 0 23 C0 15.41 0 7.82 0 0 Z " fill="#D38E0B" transform="translate(182,802)"/>
  <path d="M0 0 C11 0 11 0 15 3 C15.39799378 6.11761794 15.52117429 8.12464741 13.890625 10.86328125 C12.66730907 13.7981664 13.36083311 15.28551218 14.375 18.25 C14.67148437 19.14203125 14.96796875 20.0340625 15.2734375 20.953125 C15.51320313 21.62859375 15.75296875 22.3040625 16 23 C15.01 23 14.02 23 13 23 C12.78085937 22.36191406 12.56171875 21.72382812 12.3359375 21.06640625 C11.3728723 18.55695588 10.42196269 16.28375825 9 14 C5.883975 12.78209281 5.883975 12.78209281 3 13 C3 16.3 3 19.6 3 23 C2.01 23 1.02 23 0 23 C0 15.41 0 7.82 0 0 Z " fill="#D38F0B" transform="translate(864,802)"/>
  <path d="M0 0 C11.9 0 11.9 0 15 3 C16.0625 5.875 16.0625 5.875 16 9 C14.625 11.875 14.625 11.875 12 14 C8.87743524 14.42385329 6.17512236 14.23346488 3 14 C3 16.97 3 19.94 3 23 C2.01 23 1.02 23 0 23 C0 15.41 0 7.82 0 0 Z " fill="#D7910B" transform="translate(824,802)"/>
  <path d="M0 0 C1.65 0 3.3 0 5 0 C6.98 5.61 8.96 11.22 11 17 C13.10850329 13.83724506 14.28830876 10.86528462 15.625 7.3125 C16.07101562 6.13300781 16.51703125 4.95351563 16.9765625 3.73828125 C17.31429688 2.83464844 17.65203125 1.93101562 18 1 C19.32 1 20.64 1 22 1 C22 8.26 22 15.52 22 23 C21.34 23 20.68 23 20 23 C19.67 17.72 19.34 12.44 19 7 C17.02 12.28 15.04 17.56 13 23 C12.01 23 11.02 23 10 23 C8.02 17.72 6.04 12.44 4 7 C3.67 12.28 3.34 17.56 3 23 C2.01 23 1.02 23 0 23 C0 15.41 0 7.82 0 0 Z " fill="#CC8A0B" transform="translate(415,802)"/>
  <path d="M0 0 C2.3737793 0.22485352 2.3737793 0.22485352 5 1 C6.21020508 2.91772461 6.21020508 2.91772461 7.01953125 5.40234375 C7.4690918 6.73749023 7.4690918 6.73749023 7.92773438 8.09960938 C8.21970703 9.03611328 8.51167969 9.97261719 8.8125 10.9375 C9.12380859 11.87013672 9.43511719 12.80277344 9.75585938 13.76367188 C12 20.58487294 12 20.58487294 12 23 C11.01 23 10.02 23 9 23 C8.34 21.35 7.68 19.7 7 18 C3.7 17.67 0.4 17.34 -3 17 C-3.66 18.98 -4.32 20.96 -5 23 C-5.66 23 -6.32 23 -7 23 C-6.33654156 17.74272175 -4.74419696 13.07140932 -2.9375 8.125 C-2.65583984 7.34125 -2.37417969 6.5575 -2.08398438 5.75 C-1.39386218 3.83169424 -0.69755684 1.91561481 0 0 Z " fill="#C7870C" transform="translate(399,802)"/>
  <path d="M0 0 C1.32 0 2.64 0 4 0 C5.17430074 3.2681432 6.33811256 6.53992515 7.5 9.8125 C8.00080078 11.2056543 8.00080078 11.2056543 8.51171875 12.62695312 C8.82753906 13.51962891 9.14335938 14.41230469 9.46875 15.33203125 C9.76201172 16.15421143 10.05527344 16.9763916 10.35742188 17.82348633 C11 20 11 20 11 23 C10.01 23 9.02 23 8 23 C7.67 21.02 7.34 19.04 7 17 C3.37 17 -0.26 17 -4 17 C-4.33 18.98 -4.66 20.96 -5 23 C-5.99 23 -6.98 23 -8 23 C-6.05797655 14.97928527 -3.33160505 7.54549287 0 0 Z " fill="#D18E0B" transform="translate(591,802)"/>
  <path d="M0 0 C1.32 0 2.64 0 4 0 C5.37207031 1.46875 5.37207031 1.46875 6.578125 3.5 C7.01640625 4.221875 7.4546875 4.94375 7.90625 5.6875 C8.57140625 6.8321875 8.57140625 6.8321875 9.25 8 C9.70890625 8.763125 10.1678125 9.52625 10.640625 10.3125 C11.77346444 12.20056573 12.88844495 14.09932571 14 16 C14.33 10.72 14.66 5.44 15 0 C15.66 0 16.32 0 17 0 C17 7.59 17 15.18 17 23 C16.01 23 15.02 23 14 23 C12.74145508 21.53125 12.74145508 21.53125 11.51953125 19.5 C11.07802734 18.778125 10.63652344 18.05625 10.18164062 17.3125 C9.72982422 16.549375 9.27800781 15.78625 8.8125 15 C8.34908203 14.236875 7.88566406 13.47375 7.40820312 12.6875 C6.2624085 10.79752949 5.12994242 8.89949045 4 7 C3.67 12.28 3.34 17.56 3 23 C2.01 23 1.02 23 0 23 C0 15.41 0 7.82 0 0 Z " fill="#D08D0B" transform="translate(914,802)"/>
  <path d="M0 0 C1.32 0 2.64 0 4 0 C5.37207031 1.46875 5.37207031 1.46875 6.578125 3.5 C7.01640625 4.221875 7.4546875 4.94375 7.90625 5.6875 C8.57140625 6.8321875 8.57140625 6.8321875 9.25 8 C9.70890625 8.763125 10.1678125 9.52625 10.640625 10.3125 C11.77346444 12.20056573 12.88844495 14.09932571 14 16 C14.33 10.72 14.66 5.44 15 0 C15.66 0 16.32 0 17 0 C17 7.59 17 15.18 17 23 C16.01 23 15.02 23 14 23 C12.74145508 21.53125 12.74145508 21.53125 11.51953125 19.5 C11.07802734 18.778125 10.63652344 18.05625 10.18164062 17.3125 C9.72982422 16.549375 9.27800781 15.78625 8.8125 15 C8.34908203 14.236875 7.88566406 13.47375 7.40820312 12.6875 C6.2624085 10.79752949 5.12994242 8.89949045 4 7 C3.67 12.28 3.34 17.56 3 23 C2.01 23 1.02 23 0 23 C0 15.41 0 7.82 0 0 Z " fill="#D08D0B" transform="translate(502,802)"/>
  <path d="M0 0 C12.52941176 0 12.52941176 0 17 4 C18.96881005 7.93762009 18.45834498 12.70766117 18 17 C15.90219061 20.61691275 14.95125774 21.68291409 11 23 C7.37 23 3.74 23 0 23 C0 15.41 0 7.82 0 0 Z M3 3 C3 8.94 3 14.88 3 21 C9.20858402 21.33918222 9.20858402 21.33918222 14 19 C15.29004296 16.41991408 15.20410224 14.44258426 15.25 11.5625 C15.27578125 10.59441406 15.3015625 9.62632812 15.328125 8.62890625 C15.22464604 5.61056108 15.22464604 5.61056108 12 3 C9.03 3 6.06 3 3 3 Z " fill="#D5900B" transform="translate(327,802)"/>
  <path d="M0 0 C1.32 0 2.64 0 4 0 C5.37207031 1.46875 5.37207031 1.46875 6.578125 3.5 C7.01640625 4.221875 7.4546875 4.94375 7.90625 5.6875 C8.57140625 6.8321875 8.57140625 6.8321875 9.25 8 C9.70890625 8.763125 10.1678125 9.52625 10.640625 10.3125 C11.77346444 12.20056573 12.88844495 14.09932571 14 16 C14.33 10.72 14.66 5.44 15 0 C15.66 0 16.32 0 17 0 C17 7.59 17 15.18 17 23 C16.01 23 15.02 23 14 23 C12.74145508 21.53125 12.74145508 21.53125 11.51953125 19.5 C11.07802734 18.778125 10.63652344 18.05625 10.18164062 17.3125 C9.72982422 16.549375 9.27800781 15.78625 8.8125 15 C8.34908203 14.236875 7.88566406 13.47375 7.40820312 12.6875 C6.2624085 10.79752949 5.12994242 8.89949045 4 7 C3.67 12.28 3.34 17.56 3 23 C2.01 23 1.02 23 0 23 C0 15.41 0 7.82 0 0 Z " fill="#D08D0B" transform="translate(271,802)"/>
  <path d="M0 0 C5.10618352 1.27654588 6.20021883 3.81424896 8.75 8.0625 C9.16121094 8.72572266 9.57242187 9.38894531 9.99609375 10.07226562 C11.00824336 11.70818186 12.00557507 13.35324932 13 15 C13.33 10.05 13.66 5.1 14 0 C14.99 0 15.98 0 17 0 C17 7.59 17 15.18 17 23 C13 22 13 22 11.62792969 20.32592773 C11.03093262 19.26547241 11.03093262 19.26547241 10.421875 18.18359375 C9.98359375 17.41982422 9.5453125 16.65605469 9.09375 15.86914062 C8.6503125 15.06669922 8.206875 14.26425781 7.75 13.4375 C7.29109375 12.63119141 6.8321875 11.82488281 6.359375 10.99414062 C5.22807756 9.00258576 4.11251724 7.00210641 3 5 C2.67 10.94 2.34 16.88 2 23 C1.34 23 0.68 23 0 23 C0 15.41 0 7.82 0 0 Z " fill="#CF8C0B" transform="translate(370,802)"/>
  <path d="M0 0 C2.5 1.375 2.5 1.375 4 3 C4 3.66 4 4.32 4 5 C3.484375 4.855625 2.96875 4.71125 2.4375 4.5625 C-0.73976035 3.82928607 -3.74112037 3.23700943 -7 3 C-9.6479735 4.76531567 -9.9769986 5.93099579 -11 9 C-11.26037027 12.58009121 -11.39150804 15.15173258 -9.875 18.4375 C-8.01053339 20.28716342 -8.01053339 20.28716342 -4.9375 20.3125 C-2.06978072 20.18075966 -2.06978072 20.18075966 0 19 C0.72693904 17.02111039 1.39816251 15.02045442 2 13 C-0.31 13 -2.62 13 -5 13 C-5 12.34 -5 11.68 -5 11 C-2.03 11 0.94 11 4 11 C4 14.96 4 18.92 4 23 C3.34 23 2.68 23 2 23 C1.67 22.34 1.34 21.68 1 21 C0.34 21.66 -0.32 22.32 -1 23 C-4.00922309 23.34532068 -6.09325299 23.56241657 -9 23 C-12.17443754 20.43343348 -14.69156276 18.20312314 -15.2734375 14.046875 C-15.46329043 9.75327801 -15.4342668 6.90417036 -12.625 3.5 C-8.63982311 -0.29540656 -5.38234316 -0.61694843 0 0 Z " fill="#D7910A" transform="translate(309,802)"/>
  <path d="M0 0 C4.95 0 9.9 0 15 0 C15 0.99 15 1.98 15 3 C11.04 3 7.08 3 3 3 C3 5.31 3 7.62 3 10 C6.3 10 9.6 10 13 10 C13 10.66 13 11.32 13 12 C9.7 12 6.4 12 3 12 C3 14.97 3 17.94 3 21 C6.96 21 10.92 21 15 21 C15 21.66 15 22.32 15 23 C10.05 23 5.1 23 0 23 C0 15.41 0 7.82 0 0 Z " fill="#CC8A0B" transform="translate(784,802)"/>
  <path d="M0 0 C4.62 0 9.24 0 14 0 C14 0.99 14 1.98 14 3 C10.37 3 6.74 3 3 3 C3 5.31 3 7.62 3 10 C6.3 10 9.6 10 13 10 C13 10.66 13 11.32 13 12 C9.7 12 6.4 12 3 12 C3 14.97 3 17.94 3 21 C6.63 21 10.26 21 14 21 C14 21.66 14 22.32 14 23 C9.38 23 4.76 23 0 23 C0 15.41 0 7.82 0 0 Z " fill="#D48F0B" transform="translate(735,802)"/>
  <path d="M0 0 C4.62 0 9.24 0 14 0 C14 0.99 14 1.98 14 3 C10.37 3 6.74 3 3 3 C3 5.31 3 7.62 3 10 C6.3 10 9.6 10 13 10 C13 10.66 13 11.32 13 12 C9.7 12 6.4 12 3 12 C3 14.97 3 17.94 3 21 C6.63 21 10.26 21 14 21 C14 21.66 14 22.32 14 23 C9.38 23 4.76 23 0 23 C0 15.41 0 7.82 0 0 Z " fill="#D48F0B" transform="translate(678,802)"/>
  <path d="M0 0 C4.62 0 9.24 0 14 0 C14 0.99 14 1.98 14 3 C10.37 3 6.74 3 3 3 C3 5.31 3 7.62 3 10 C6.3 10 9.6 10 13 10 C13 10.66 13 11.32 13 12 C9.7 12 6.4 12 3 12 C3 14.97 3 17.94 3 21 C6.63 21 10.26 21 14 21 C14 21.66 14 22.32 14 23 C9.38 23 4.76 23 0 23 C0 15.41 0 7.82 0 0 Z " fill="#D4900B" transform="translate(545,802)"/>
  <path d="M0 0 C0.99 0 1.98 0 3 0 C4.38671875 1.75 4.38671875 1.75 5.6875 4 C6.12449219 4.7425 6.56148437 5.485 7.01171875 6.25 C7.33785156 6.8275 7.66398438 7.405 8 8 C10.12038635 5.38485683 12.13091744 2.80362384 14 0 C14.99 0 15.98 0 17 0 C15.97603803 2.75682069 14.93604828 5.09711187 13.3125 7.5625 C11.83639003 9.81415544 11.83639003 9.81415544 12.0625 11.875 C12.95059933 13.88802515 13.96161578 15.722043 15.0625 17.625 C17 21 17 21 17 23 C16.01 23 15.02 23 14 23 C11.69857008 20.17780856 9.93430484 17.09488775 8 14 C6.02 16.97 4.04 19.94 2 23 C1.01 22.67 0.02 22.34 -1 22 C-0.54367187 21.33613281 -0.08734375 20.67226563 0.3828125 19.98828125 C0.95773437 19.10527344 1.53265625 18.22226562 2.125 17.3125 C2.70507812 16.44238281 3.28515625 15.57226562 3.8828125 14.67578125 C5.30307077 12.04220836 5.30307077 12.04220836 4.28125 9.3359375 C3.35093033 7.63980591 2.37595664 5.9679283 1.375 4.3125 C0 2 0 2 0 0 Z " fill="#D28E0B" transform="translate(802,802)"/>
  <path d="M0 0 C2.5 1.5 2.5 1.5 4 3 C3.67 3.99 3.34 4.98 3 6 C2.01 5.34 1.02 4.68 0 4 C-2.76020996 3.62832816 -5.18852476 3.82149364 -8 4 C-10.60186108 6.60186108 -10.29810177 7.82354355 -10.3125 11.4375 C-10.32925781 12.40558594 -10.34601563 13.37367188 -10.36328125 14.37109375 C-10.20174808 17.01120574 -10.20174808 17.01120574 -8.703125 18.85546875 C-6.84867239 20.34337311 -6.84867239 20.34337311 -3.4375 19.875 C0.25442394 19.34366067 0.25442394 19.34366067 2 16 C2.66 16 3.32 16 4 16 C3.6875 18.375 3.6875 18.375 3 21 C-1.02874181 23.68582787 -4.27005691 23.90291383 -9 23 C-12.63979335 20.25158461 -13.70758775 18.78580341 -14.4375 14.328125 C-14.63573778 9.74387631 -14.51540119 6.85900198 -12.125 2.875 C-8.38346101 -0.42635793 -4.84819485 -0.57488477 0 0 Z " fill="#E2980A" transform="translate(173,802)"/>
  <path d="M0 0 C1.21236328 0.04060547 1.21236328 0.04060547 2.44921875 0.08203125 C3.06410156 0.11683594 3.67898438 0.15164063 4.3125 0.1875 C4.9725 1.5075 5.6325 2.8275 6.3125 4.1875 C2.6825 3.8575 -0.9475 3.5275 -4.6875 3.1875 C-4.3575 4.8375 -4.0275 6.4875 -3.6875 8.1875 C-1.43408768 9.62294331 -1.43408768 9.62294331 1.3125 10.4375 C6.28641304 12.16141304 6.28641304 12.16141304 7.3125 13.1875 C7.78283808 19.53706411 7.78283808 19.53706411 6.078125 21.89453125 C3.84317686 23.53118575 2.55942325 23.55951667 -0.1875 23.5 C-0.9609375 23.49613281 -1.734375 23.49226562 -2.53125 23.48828125 C-4.6875 23.1875 -4.6875 23.1875 -7.6875 21.1875 C-7.6875 20.1975 -7.6875 19.2075 -7.6875 18.1875 C-6.6665625 18.7134375 -6.6665625 18.7134375 -5.625 19.25 C-1.9787211 20.41370603 0.59739978 19.91595102 4.3125 19.1875 C4.3125 17.8675 4.3125 16.5475 4.3125 15.1875 C3.61382813 14.93355469 2.91515625 14.67960938 2.1953125 14.41796875 C0.83019531 13.90169922 0.83019531 13.90169922 -0.5625 13.375 C-1.46742188 13.03855469 -2.37234375 12.70210937 -3.3046875 12.35546875 C-5.6875 11.1875 -5.6875 11.1875 -7.6875 8.1875 C-8.04013504 5.3664197 -8.18738769 3.85773158 -6.4609375 1.54296875 C-4.16581828 -0.21123031 -2.85286104 -0.12403744 0 0 Z " fill="#D6900B" transform="translate(986.6875,801.8125)"/>
  <path d="M0 0 C11.35564854 -0.49372385 11.35564854 -0.49372385 14.40625 1.84375 C16 4 16 4 15.75 6.75 C15.5025 7.4925 15.255 8.235 15 9 C11.0186217 10.3271261 7.14954773 10.06915913 3 10 C3 7.36 3 4.72 3 2 C2.34 1.67 1.68 1.34 1 1 C1 8.26 1 15.52 1 23 C0.67 23 0.34 23 0 23 C0 15.41 0 7.82 0 0 Z " fill="#A9750E" transform="translate(754,802)"/>
  <path d="M0 0 C4.62 0 9.24 0 14 0 C14 0.99 14 1.98 14 3 C10.37 3 6.74 3 3 3 C3 5.31 3 7.62 3 10 C5.97 10 8.94 10 12 10 C12 10.66 12 11.32 12 12 C8.7 12 5.4 12 2 12 C2 14.97 2 17.94 2 21 C5.96 21 9.92 21 14 21 C14 21.66 14 22.32 14 23 C9.38 23 4.76 23 0 23 C0 15.41 0 7.82 0 0 Z " fill="#D4900B" transform="translate(961,802)"/>
  <path d="M0 0 C4.62 0 9.24 0 14 0 C14 0.99 14 1.98 14 3 C10.37 3 6.74 3 3 3 C3 5.31 3 7.62 3 10 C5.97 10 8.94 10 12 10 C12 10.66 12 11.32 12 12 C8.7 12 5.4 12 2 12 C2 14.97 2 17.94 2 21 C5.96 21 9.92 21 14 21 C14 21.66 14 22.32 14 23 C9.38 23 4.76 23 0 23 C0 15.41 0 7.82 0 0 Z " fill="#D4900B" transform="translate(895,802)"/>
  <path d="M0 0 C4.62 0 9.24 0 14 0 C14 0.99 14 1.98 14 3 C10.37 3 6.74 3 3 3 C3 5.31 3 7.62 3 10 C5.97 10 8.94 10 12 10 C12 10.66 12 11.32 12 12 C8.7 12 5.4 12 2 12 C2 14.97 2 17.94 2 21 C5.96 21 9.92 21 14 21 C14 21.66 14 22.32 14 23 C9.38 23 4.76 23 0 23 C0 15.41 0 7.82 0 0 Z " fill="#D4900B" transform="translate(845,802)"/>
  <path d="M0 0 C3 1 3 1 3.89135742 2.67407227 C4.12701416 3.38104248 4.3626709 4.0880127 4.60546875 4.81640625 C4.86650391 5.58017578 5.12753906 6.34394531 5.39648438 7.13085938 C5.65751953 7.93330078 5.91855469 8.73574219 6.1875 9.5625 C6.46013672 10.36880859 6.73277344 11.17511719 7.01367188 12.00585938 C7.68637481 14.00036455 8.34456415 15.99975402 9 18 C9.38671875 16.78441406 9.7734375 15.56882812 10.171875 14.31640625 C10.69705589 12.73148535 11.22314477 11.14686511 11.75 9.5625 C12.00265625 8.76005859 12.2553125 7.95761719 12.515625 7.13085938 C12.7734375 6.36708984 13.03125 5.60332031 13.296875 4.81640625 C13.52729492 4.10943604 13.75771484 3.40246582 13.99511719 2.67407227 C15 1 15 1 17.10644531 0.26147461 C17.73131836 0.17518799 18.35619141 0.08890137 19 0 C16.81659819 7.86379677 14.00714974 15.41675284 11 23 C9.68 23 8.36 23 7 23 C5.82569926 19.7318568 4.66188744 16.46007485 3.5 13.1875 C3.16613281 12.25873047 2.83226562 11.32996094 2.48828125 10.37304688 C2.17246094 9.48037109 1.85664062 8.58769531 1.53125 7.66796875 C1.09135742 6.43469849 1.09135742 6.43469849 0.64257812 5.17651367 C0 3 0 3 0 0 Z " fill="#D7910B" transform="translate(655,802)"/>
  <path d="M0 0 C2.5 2 2.5 2 4 4 C3.34 4.66 2.68 5.32 2 6 C1.443125 5.505 0.88625 5.01 0.3125 4.5 C-2.42758164 2.72264975 -3.79373024 2.67115182 -7 3 C-7.99 3.33 -8.98 3.66 -10 4 C-11.48085656 11.84443561 -11.48085656 11.84443561 -9 19 C-5.40643641 20.0704232 -3.5731613 20.19105377 0 19 C1.66710346 17.50014391 1.66710346 17.50014391 3 16 C3 20 3 20 1.7734375 21.71875 C-1.02524373 23.74070472 -3.41448994 23.52972262 -6.7734375 23.42578125 C-10.33744585 22.74424281 -11.89353457 20.83056293 -14 18 C-15.50650776 13.48047673 -15.74563919 9.64040622 -13.75 5.25 C-9.86950291 0.26078946 -6.26732153 -1.22007284 0 0 Z " fill="#D5900B" transform="translate(952,802)"/>
  <path d="M0 0 C2.5 2 2.5 2 4 4 C3.34 4.66 2.68 5.32 2 6 C1.443125 5.505 0.88625 5.01 0.3125 4.5 C-2.42758164 2.72264975 -3.79373024 2.67115182 -7 3 C-7.99 3.33 -8.98 3.66 -10 4 C-11.48085656 11.84443561 -11.48085656 11.84443561 -9 19 C-5.40643641 20.0704232 -3.5731613 20.19105377 0 19 C1.66710346 17.50014391 1.66710346 17.50014391 3 16 C3 20 3 20 1.7734375 21.71875 C-1.02524373 23.74070472 -3.41448994 23.52972262 -6.7734375 23.42578125 C-10.33744585 22.74424281 -11.89353457 20.83056293 -14 18 C-15.50650776 13.48047673 -15.74563919 9.64040622 -13.75 5.25 C-9.86950291 0.26078946 -6.26732153 -1.22007284 0 0 Z " fill="#D5900B" transform="translate(620,802)"/>
  <path d="M0 0 C2.5 1.3125 2.5 1.3125 4 3 C4 3.99 4 4.98 4 6 C3.34 6 2.68 6 2 6 C1.608125 5.484375 1.21625 4.96875 0.8125 4.4375 C-1.08082112 2.61027178 -1.08082112 2.61027178 -4.5625 3.1875 C-8.04248777 3.69215918 -8.04248777 3.69215918 -10 6 C-10.35776166 8.5637893 -10.35776166 8.5637893 -10.3125 11.4375 C-10.32925781 12.40558594 -10.34601563 13.37367188 -10.36328125 14.37109375 C-10.20174808 17.01120574 -10.20174808 17.01120574 -8.703125 18.85546875 C-6.84867239 20.34337311 -6.84867239 20.34337311 -3.4375 19.875 C0.25442394 19.34366067 0.25442394 19.34366067 2 16 C2.66 16 3.32 16 4 16 C3.6875 18.375 3.6875 18.375 3 21 C-0.68893116 23.45928744 -3.71641421 23.69305579 -8 23 C-11.44312714 20.8755173 -12.71617547 19.85147359 -14 16 C-14.56216437 11.16170012 -14.45721862 7.85347476 -12.125 3.5 C-8.63842869 -0.6018486 -5.15942596 -0.58120016 0 0 Z " fill="#DA930A" transform="translate(467,802)"/>
  <path d="M0 0 C5.61 0 11.22 0 17 0 C17 0.99 17 1.98 17 3 C14.69 3 12.38 3 10 3 C10 9.6 10 16.2 10 23 C9.01 23 8.02 23 7 23 C7 16.4 7 9.8 7 3 C4.69 3 2.38 3 0 3 C0 2.01 0 1.02 0 0 Z " fill="#C8880B" transform="translate(626,802)"/>
  <path d="M0 0 C5.61 0 11.22 0 17 0 C17 0.99 17 1.98 17 3 C14.69 3 12.38 3 10 3 C10 9.6 10 16.2 10 23 C9.01 23 8.02 23 7 23 C7 16.4 7 9.8 7 3 C4.69 3 2.38 3 0 3 C0 2.01 0 1.02 0 0 Z " fill="#C8880B" transform="translate(240,802)"/>
  <path d="M0 0 C2.70438996 0.36405249 3.74406383 0.68142682 5.484375 2.84765625 C5.90203125 3.57855469 6.3196875 4.30945313 6.75 5.0625 C7.39195312 6.16271484 7.39195312 6.16271484 8.046875 7.28515625 C8.36140625 7.85105469 8.6759375 8.41695312 9 9 C11.40072955 6.11912454 13.47291037 3.43595166 15 0 C15.99 0 16.98 0 18 0 C16.98459798 3.46929024 15.88568413 6.1801341 13.9375 9.25 C11.332404 13.55954542 11.19870703 18.06213035 11 23 C10.01 23 9.02 23 8 23 C8.00902344 22.41734375 8.01804687 21.8346875 8.02734375 21.234375 C7.76816632 14.06755563 5.30067928 9.38034856 1.49609375 3.37109375 C0 1 0 1 0 0 Z " fill="#D18E0B" transform="translate(347,802)"/>
  <path d="M0 0 C2.26171875 -0.0859375 2.26171875 -0.0859375 5 1 C6.73857503 3.95295659 7.74138082 7.13090393 8.8125 10.375 C9.12380859 11.2515625 9.43511719 12.128125 9.75585938 13.03125 C12 19.48253777 12 19.48253777 12 23 C11.01 23 10.02 23 9 23 C8.34 21.02 7.68 19.04 7 17 C4.36 16.67 1.72 16.34 -1 16 C-1 15.67 -1 15.34 -1 15 C1.31 15 3.62 15 6 15 C5.01 11.7 4.02 8.4 3 5 C0.94441892 7.82062469 0.94441892 7.82062469 0.0625 10.625 C-0.288125 11.40875 -0.63875 12.1925 -1 13 C-1.99 13.33 -2.98 13.66 -4 14 C-3.52188823 12.22888156 -3.0424722 10.45811517 -2.5625 8.6875 C-2.29566406 7.70136719 -2.02882812 6.71523438 -1.75390625 5.69921875 C-1.21920575 3.78482474 -0.62855462 1.88566385 0 0 Z " fill="#D5900B" transform="translate(208,802)"/>
  <path d="M0 0 C0.99 0.33 1.98 0.66 3 1 C4.04777631 3.47334238 4.90161461 5.82027892 5.6875 8.375 C5.91244141 9.06078125 6.13738281 9.7465625 6.36914062 10.453125 C7.31470473 13.40765356 8 15.8803551 8 19 C7.01 19 6.02 19 5 19 C4.67 17.02 4.34 15.04 4 13 C0.37 13 -3.26 13 -7 13 C-7.33 14.98 -7.66 16.96 -8 19 C-8.99 19 -9.98 19 -11 19 C-10.55090939 17.51800098 -10.09043436 16.03944764 -9.625 14.5625 C-9.36976563 13.73878906 -9.11453125 12.91507813 -8.8515625 12.06640625 C-8 10 -8 10 -6 9 C-6 9.66 -6 10.32 -6 11 C-3.03 11 -0.06 11 3 11 C2.2575 9.1128125 2.2575 9.1128125 1.5 7.1875 C0.43891831 4.49058403 0 2.95274099 0 0 Z " fill="#D6910B" transform="translate(594,806)"/>
  <path d="M0 0 C3.74071102 3.74071102 4.27337346 8.91361421 5 14 C1.7 14 -1.6 14 -5 14 C-5.33 15.98 -5.66 17.96 -6 20 C-6.99 20 -7.98 20 -9 20 C-8.34 17.03 -7.68 14.06 -7 11 C-5.68 10.67 -4.36 10.34 -3 10 C-1.85706445 7.68684675 -1.85706445 7.68684675 -1.25 4.9375 C-1.00765625 4.01839844 -0.7653125 3.09929688 -0.515625 2.15234375 C-0.34546875 1.44207031 -0.1753125 0.73179687 0 0 Z " fill="#BF820C" transform="translate(210,805)"/>
  <path d="M0 0 C6.8359375 -0.1953125 6.8359375 -0.1953125 9 0 C11 2 11 2 11.25 4.5 C11 7 11 7 9 9 C5.98173347 9.27240673 3.03629378 9.08675125 0 9 C0 6.03 0 3.06 0 0 Z " fill="#161919" transform="translate(757,814)"/>
  <path d="M0 0 C1.65 0 3.3 0 5 0 C6.31626692 3.61973402 7 6.09567131 7 10 C6.34 10 5.68 10 5 10 C4.67 9.01 4.34 8.02 4 7 C3.67 12.28 3.34 17.56 3 23 C2.01 23 1.02 23 0 23 C0 15.41 0 7.82 0 0 Z " fill="#C9880B" transform="translate(415,802)"/>
  <path d="M0 0 C4.29 0 8.58 0 13 0 C13 0.66 13 1.32 13 2 C9.37 2 5.74 2 2 2 C2 4.97 2 7.94 2 11 C5.3 11 8.6 11 12 11 C12 11.66 12 12.32 12 13 C8.7 13 5.4 13 2 13 C2 16.3 2 19.6 2 23 C1.34 23 0.68 23 0 23 C0 15.41 0 7.82 0 0 Z " fill="#E3990A" transform="translate(225,802)"/>
  <path d="M0 0 C6.0546875 -0.1953125 6.0546875 -0.1953125 8 0 C8.66 0.66 9.32 1.32 10 2 C9.8125 4.5 9.8125 4.5 9 7 C5.5647952 9.29013653 4.014669 9.17842973 0 9 C0 6.03 0 3.06 0 0 Z " fill="#15181A" transform="translate(827,805)"/>
  <path d="M0 0 C2.97 0 5.94 0 9 0 C9 3.96 9 7.92 9 12 C8.34 12 7.68 12 7 12 C6.67 11.34 6.34 10.68 6 10 C5.34 10.66 4.68 11.32 4 12 C-2.93475366 12.55925433 -2.93475366 12.55925433 -6.5 10.6875 C-8 9 -8 9 -8 6 C-4.125 7.875 -4.125 7.875 -3 9 C1.14276875 9.24733137 1.14276875 9.24733137 5 8 C5.72693904 6.02111039 6.39816251 4.02045442 7 2 C4.69 2 2.38 2 0 2 C0 1.34 0 0.68 0 0 Z " fill="#E69B0A" transform="translate(304,813)"/>
  <path d="M0 0 C5.28 0 10.56 0 16 0 C16 0.66 16 1.32 16 2 C13.69 2 11.38 2 9 2 C9 8.93 9 15.86 9 23 C8.34 23 7.68 23 7 23 C7 16.07 7 9.14 7 2 C4.69 2 2.38 2 0 2 C0 1.34 0 0.68 0 0 Z " fill="#DF970A" transform="translate(524,802)"/>
  <path d="M0 0 C0.99 0 1.98 0 3 0 C3 7.59 3 15.18 3 23 C2.01 23 1.02 23 0 23 C0 15.41 0 7.82 0 0 Z " fill="#D38F0B" transform="translate(885,802)"/>
  <path d="M0 0 C0.99 0 1.98 0 3 0 C3 7.59 3 15.18 3 23 C2.01 23 1.02 23 0 23 C0 15.41 0 7.82 0 0 Z " fill="#C9890C" transform="translate(647,802)"/>
  <path d="M0 0 C0.99 0 1.98 0 3 0 C3 7.59 3 15.18 3 23 C2.01 23 1.02 23 0 23 C0 15.41 0 7.82 0 0 Z " fill="#C9890C" transform="translate(492,802)"/>
  <path d="M0 0 C0.99 0 1.98 0 3 0 C3 7.59 3 15.18 3 23 C2.01 23 1.02 23 0 23 C0 15.41 0 7.82 0 0 Z " fill="#C9890C" transform="translate(444,802)"/>
  <path d="M0 0 C0.99 0 1.98 0 3 0 C3 7.59 3 15.18 3 23 C2.01 23 1.02 23 0 23 C0 15.41 0 7.82 0 0 Z " fill="#C9890C" transform="translate(261,802)"/>
  <path d="M0 0 C2.97 0 5.94 0 9 0 C9.625 2.375 9.625 2.375 10 5 C8 7 8 7 6.0546875 7.1953125 C4.03645833 7.13020833 2.01822917 7.06510417 0 7 C0 4.69 0 2.38 0 0 Z " fill="#1B1C19" transform="translate(757,805)"/>
  <path d="M0 0 C0.66 0 1.32 0 2 0 C2 7.59 2 15.18 2 23 C1.01 23 0.02 23 -1 23 C-2.75 20.6875 -2.75 20.6875 -4 18 C-3.505 16.515 -3.505 16.515 -3 15 C-2.34 15.33 -1.68 15.66 -1 16 C-0.67 10.72 -0.34 5.44 0 0 Z " fill="#E49A0A" transform="translate(929,802)"/>
  <path d="M0 0 C0.66 0 1.32 0 2 0 C2 7.59 2 15.18 2 23 C1.01 23 0.02 23 -1 23 C-2.75 20.6875 -2.75 20.6875 -4 18 C-3.505 16.515 -3.505 16.515 -3 15 C-2.34 15.33 -1.68 15.66 -1 16 C-0.67 10.72 -0.34 5.44 0 0 Z " fill="#E49A0A" transform="translate(517,802)"/>
  <path d="M0 0 C0.66 0 1.32 0 2 0 C2 7.59 2 15.18 2 23 C1.01 23 0.02 23 -1 23 C-2.75 20.6875 -2.75 20.6875 -4 18 C-3.505 16.515 -3.505 16.515 -3 15 C-2.34 15.33 -1.68 15.66 -1 16 C-0.67 10.72 -0.34 5.44 0 0 Z " fill="#E49A0A" transform="translate(286,802)"/>
  <path d="M0 0 C2.5 1.5 2.5 1.5 4 3 C3.67 3.99 3.34 4.98 3 6 C2.01 5.34 1.02 4.68 0 4 C-2.76020996 3.62832816 -5.18852476 3.82149364 -8 4 C-10.29575603 6.29575603 -10.32339599 7.00842525 -10.625 10.125 C-10.74875 11.40375 -10.8725 12.6825 -11 14 C-11.33 14 -11.66 14 -12 14 C-12.144375 13.05125 -12.28875 12.1025 -12.4375 11.125 C-12.82935399 8.1065506 -12.82935399 8.1065506 -14 6 C-9.73875377 0.4603799 -7.07834884 -0.8393299 0 0 Z " fill="#CE8C0B" transform="translate(173,802)"/>
  <path d="M0 0 C1.32 0.33 2.64 0.66 4 1 C5.75 4.0625 5.75 4.0625 7 7 C6.01 7 5.02 7 4 7 C3.67 6.34 3.34 5.68 3 5 C2.67 10.94 2.34 16.88 2 23 C1.34 23 0.68 23 0 23 C0 15.41 0 7.82 0 0 Z " fill="#E69A0A" transform="translate(370,802)"/>
  <path d="M0 0 C6.15234375 -0.09765625 6.15234375 -0.09765625 8 0 C9 1 9 1 9.125 3.5 C9 6 9 6 8 7 C5.32941149 7.14115161 2.67567762 7.04247107 0 7 C0 4.69 0 2.38 0 0 Z " fill="#0D131A" transform="translate(867,805)"/>
  <path d="M0 0 C6.15234375 -0.09765625 6.15234375 -0.09765625 8 0 C9 1 9 1 9.125 3.5 C9 6 9 6 8 7 C5.32941149 7.14115161 2.67567762 7.04247107 0 7 C0 4.69 0 2.38 0 0 Z " fill="#0C131A" transform="translate(567,805)"/>
  <path d="M0 0 C6.15234375 -0.09765625 6.15234375 -0.09765625 8 0 C9 1 9 1 9.125 3.5 C9 6 9 6 8 7 C5.32941149 7.14115161 2.67567762 7.04247107 0 7 C0 4.69 0 2.38 0 0 Z " fill="#0C131A" transform="translate(185,805)"/>
  <path d="M0 0 C1.12377697 3.30435084 0.89554742 5.0506862 -0.4375 8.25 C-0.72496094 8.95640625 -1.01242187 9.6628125 -1.30859375 10.390625 C-1.53675781 10.92171875 -1.76492188 11.4528125 -2 12 C0.64 12 3.28 12 6 12 C6 12.33 6 12.66 6 13 C3.03 13 0.06 13 -3 13 C-3.33 14.98 -3.66 16.96 -4 19 C-4.99 19.33 -5.98 19.66 -7 20 C-6.38288162 15.75015382 -5.41860591 11.82343512 -4.0625 7.75 C-3.72347656 6.71359375 -3.38445312 5.6771875 -3.03515625 4.609375 C-2 2 -2 2 0 0 Z " fill="#D5900B" transform="translate(399,805)"/>
  <path d="M0 0 C1.32 0 2.64 0 4 0 C4 7.26 4 14.52 4 22 C3.34 22 2.68 22 2 22 C1.67 16.39 1.34 10.78 1 5 C0.34 5 -0.32 5 -1 5 C-0.67 3.35 -0.34 1.7 0 0 Z " fill="#E79B0A" transform="translate(433,803)"/>
  <path d="M0 0 C0.99 0 1.98 0 3 0 C1.23536928 6.10737442 -0.69557475 12.07433507 -3 18 C-3.99 18 -4.98 18 -6 18 C-4.41039668 11.76559832 -2.72399099 5.83712355 0 0 Z " fill="#C7870C" transform="translate(671,802)"/>
  <path d="M0 0 C0.66 0 1.32 0 2 0 C2.67126129 2.4363189 3.33716354 4.87388883 4 7.3125 C4.19078125 8.00279297 4.3815625 8.69308594 4.578125 9.40429688 C5.37716184 12.35787949 6 14.92559219 6 18 C5.34 18 4.68 18 4 18 C3.67 18.66 3.34 19.32 3 20 C-0.44419134 6.3667426 -0.44419134 6.3667426 0 0 Z " fill="#CF8C0B" transform="translate(704,802)"/>
  <path d="M0 0 C1.5625 1.4375 1.5625 1.4375 2.5625 4.25 C2.5625 7.4375 2.5625 7.4375 0.75 10.3125 C-1.4375 12.4375 -1.4375 12.4375 -3.4375 12.4375 C-3.7675 11.4475 -4.0975 10.4575 -4.4375 9.4375 C-3.4475 8.7775 -2.4575 8.1175 -1.4375 7.4375 C-1.7675 5.7875 -2.0975 4.1375 -2.4375 2.4375 C-5.0775 2.1075 -7.7175 1.7775 -10.4375 1.4375 C-10.4375 1.1075 -10.4375 0.7775 -10.4375 0.4375 C-3.27620968 -0.75604839 -3.27620968 -0.75604839 0 0 Z " fill="#C5860C" transform="translate(837.4375,803.5625)"/>
  <path d="M0 0 C0 2.31 0 4.62 0 7 C-0.99 7.33 -1.98 7.66 -3 8 C-3.33 8.66 -3.66 9.32 -4 10 C-4 9.34 -4 8.68 -4 8 C-6.64 8 -9.28 8 -12 8 C-12 7.67 -12 7.34 -12 7 C-9.36 6.67 -6.72 6.34 -4 6 C-4 4.35 -4 2.7 -4 1 C-6.64 0.67 -9.28 0.34 -12 0 C-12 -0.33 -12 -0.66 -12 -1 C-3.42857143 -2.42857143 -3.42857143 -2.42857143 0 0 Z " fill="#B77D0D" transform="translate(579,805)"/>
  <path d="M0 0 C0 2.31 0 4.62 0 7 C-0.99 7.33 -1.98 7.66 -3 8 C-3.33 8.66 -3.66 9.32 -4 10 C-4 9.34 -4 8.68 -4 8 C-6.64 8 -9.28 8 -12 8 C-12 7.67 -12 7.34 -12 7 C-9.36 6.67 -6.72 6.34 -4 6 C-4 4.35 -4 2.7 -4 1 C-6.64 0.67 -9.28 0.34 -12 0 C-12 -0.33 -12 -0.66 -12 -1 C-3.42857143 -2.42857143 -3.42857143 -2.42857143 0 0 Z " fill="#B77D0D" transform="translate(197,805)"/>
  <path d="M0 0 C2.3129482 2.3129482 2.49580975 3.47904875 3.125 6.625 C3.29257813 7.44226563 3.46015625 8.25953125 3.6328125 9.1015625 C3.81457031 10.04128906 3.81457031 10.04128906 4 11 C1.69 11 -0.62 11 -3 11 C-2.69078116 9.54096742 -2.37751201 8.08279278 -2.0625 6.625 C-1.88847656 5.81289063 -1.71445313 5.00078125 -1.53515625 4.1640625 C-1 2 -1 2 0 0 Z " fill="#1D1D19" transform="translate(210,805)"/>
  <path d="M0 0 C2 1 2 1 3.125 3.8125 C4 7 4 7 4 11 C1.69 11 -0.62 11 -3 11 C-2.01 7.37 -1.02 3.74 0 0 Z " fill="#1E1E19" transform="translate(592,805)"/>
  <path d="M0 0 C2.45823172 3.68734758 3.01242616 6.69699971 4 11 C1.69 11 -0.62 11 -3 11 C-2.53199289 6.94393835 -2.12046792 3.53411321 0 0 Z " fill="#1E1E19" transform="translate(401,805)"/>
  <path d="M0 0 C0.66 0 1.32 0 2 0 C2.35813217 4.56618517 2.60240582 7.92905632 0.3125 12 C-2.21006769 14.18168017 -3.7129718 14.72608098 -7 15 C-6.67 14.01 -6.34 13.02 -6 12 C-4.68 11.67 -3.36 11.34 -2 11 C-1.34 7.37 -0.68 3.74 0 0 Z " fill="#DC940A" transform="translate(343,810)"/>
  <path d="M0 0 C1.3125 2.625 1.3125 2.625 2 5 C1.34 5 0.68 5 0 5 C0 7.31 0 9.62 0 12 C-0.33 12 -0.66 12 -1 12 C-1.07347656 11.06027344 -1.07347656 11.06027344 -1.1484375 10.1015625 C-1.22320312 9.28429687 -1.29796875 8.46703125 -1.375 7.625 C-1.44460938 6.81289063 -1.51421875 6.00078125 -1.5859375 5.1640625 C-1.82892588 2.79665809 -1.82892588 2.79665809 -4 1 C-6.20250992 0.53993654 -6.20250992 0.53993654 -8.625 0.375 C-9.85089844 0.26285156 -9.85089844 0.26285156 -11.1015625 0.1484375 C-11.72804688 0.09945312 -12.35453125 0.05046875 -13 0 C-13 -0.33 -13 -0.66 -13 -1 C-3.92307692 -2.53846154 -3.92307692 -2.53846154 0 0 Z " fill="#B97E0D" transform="translate(343,805)"/>
  <path d="M0 0 C0.99 0.33 1.98 0.66 3 1 C3.75 4.25 3.75 4.25 4 8 C2.0625 10.4375 2.0625 10.4375 0 12 C-0.66 11.67 -1.32 11.34 -2 11 C-1.34 10.01 -0.68 9.02 0 8 C0.16666667 5.5 0.16666667 5.5 0 3 C0 2.01 0 1.02 0 0 Z " fill="#CF8C0B" transform="translate(767,813)"/>
  <path d="M0 0 C1.3271261 3.9813783 1.06915913 7.85045227 1 12 C0.01 12.33 -0.98 12.66 -2 13 C-3.17051429 10.65897141 -3.1992246 9.10647047 -3.25 6.5 C-3.27578125 5.7059375 -3.3015625 4.911875 -3.328125 4.09375 C-3.21984375 3.4028125 -3.1115625 2.711875 -3 2 C-2.01 1.34 -1.02 0.68 0 0 Z " fill="#C9890C" transform="translate(297,807)"/>
  <path d="M0 0 C3.875 1.875 3.875 1.875 5 3 C6.51928038 3.07179964 8.04167482 3.08392007 9.5625 3.0625 C10.38878906 3.05347656 11.21507812 3.04445313 12.06640625 3.03515625 C13.02353516 3.01775391 13.02353516 3.01775391 14 3 C13.01 4.485 13.01 4.485 12 6 C7.80682376 6.40579125 5.2302955 6.64590514 1.5 4.6875 C0 3 0 3 0 0 Z " fill="#D9930A" transform="translate(296,819)"/>
  <path d="M0 0 C0.66 0 1.32 0 2 0 C1.6875 2.375 1.6875 2.375 1 5 C-2.20380017 7.13586678 -3.01939967 7.23132175 -6.6875 7.125 C-7.89986328 7.09792969 -7.89986328 7.09792969 -9.13671875 7.0703125 C-10.05904297 7.03550781 -10.05904297 7.03550781 -11 7 C-8.48649162 4.48649162 -6.09845181 3.88628415 -2.77734375 2.78125 C-0.80353553 2.13945096 -0.80353553 2.13945096 0 0 Z " fill="#D08D0B" transform="translate(175,818)"/>
  <path d="M0 0 C0.99 0.33 1.98 0.66 3 1 C3.94921875 3.28515625 3.94921875 3.28515625 4.6875 6.0625 C4.93886719 6.98160156 5.19023438 7.90070312 5.44921875 8.84765625 C5.63097656 9.55792969 5.81273437 10.26820313 6 11 C5.01 11.33 4.02 11.66 3 12 C2.49440092 10.56445975 1.9957251 9.1264798 1.5 7.6875 C1.2215625 6.88699219 0.943125 6.08648438 0.65625 5.26171875 C0 3 0 3 0 0 Z " fill="#D08D0B" transform="translate(655,802)"/>
  <path d="M0 0 C0 1.98 0 3.96 0 6 C-0.99 5.67 -1.98 5.34 -3 5 C-3.6875 2.9375 -3.6875 2.9375 -4 1 C-6.64 0.67 -9.28 0.34 -12 0 C-12 -0.33 -12 -0.66 -12 -1 C-3.42857143 -2.42857143 -3.42857143 -2.42857143 0 0 Z " fill="#C3850C" transform="translate(879,805)"/>
  <path d="M0 0 C1.32 0 2.64 0 4 0 C4.25532751 3.06393013 4.21861333 4.63233212 2.625 7.3125 C1.820625 8.1478125 1.820625 8.1478125 1 9 C0.34 9 -0.32 9 -1 9 C-0.67 6.03 -0.34 3.06 0 0 Z " fill="#C2840C" transform="translate(475,822)"/>
  <path d="M0 0 C2.18975773 3.28463659 2.99806563 6.20696275 4 10 C3.01 10.33 2.02 10.66 1 11 C0.63743142 9.5437328 0.28520207 8.08488815 -0.0625 6.625 C-0.35833984 5.40683594 -0.35833984 5.40683594 -0.66015625 4.1640625 C-1 2 -1 2 0 0 Z " fill="#CA890C" transform="translate(422,810)"/>
  <path d="M0 0 C0.98726527 2.66561622 1.0275526 3.90126985 0.25 6.6875 C-1 9 -1 9 -4 10 C-3.52449439 8.51965236 -3.04448784 7.04074979 -2.5625 5.5625 C-2.29566406 4.73878906 -2.02882812 3.91507813 -1.75390625 3.06640625 C-1 1 -1 1 0 0 Z " fill="#D9920A" transform="translate(208,806)"/>
  <path d="M0 0 C2.31 0 4.62 0 7 0 C7.66 1.32 8.32 2.64 9 4 C5.7 3.34 2.4 2.68 -1 2 C-0.67 1.34 -0.34 0.68 0 0 Z " fill="#DD950A" transform="translate(984,802)"/>
  <path d="M0 0 C0.99 0.33 1.98 0.66 3 1 C2.67 2.32 2.34 3.64 2 5 C4.64 4.67 7.28 4.34 10 4 C10 4.66 10 5.32 10 6 C8.54176788 6.0270043 7.08339325 6.04639787 5.625 6.0625 C4.81289063 6.07410156 4.00078125 6.08570313 3.1640625 6.09765625 C1 6 1 6 -1 5 C-0.67 3.35 -0.34 1.7 0 0 Z " fill="#A9750E" transform="translate(587,811)"/>
  <path d="M0 0 C-0.25 2.375 -0.25 2.375 -1 5 C-3.0625 6.3125 -3.0625 6.3125 -5 7 C-5.33 6.01 -5.66 5.02 -6 4 C-2.25 0 -2.25 0 0 0 Z " fill="#C9890C" transform="translate(471,818)"/>
  <path d="M0 0 C-0.33 0.99 -0.66 1.98 -1 3 C-1.99 2.34 -2.98 1.68 -4 1 C-6.32387947 0.60612212 -8.65793749 0.26513915 -11 0 C-11 -0.33 -11 -0.66 -11 -1 C-3.57142857 -2.42857143 -3.57142857 -2.42857143 0 0 Z " fill="#B27A0D" transform="translate(177,805)"/>
  <path d="M0 0 C1.65 0 3.3 0 5 0 C4.67 1.65 4.34 3.3 4 5 C3.01 5 2.02 5 1 5 C0.67 3.35 0.34 1.7 0 0 Z " fill="#E0970A" transform="translate(424,820)"/>
  <path d="M0 0 C0.33 0.66 0.66 1.32 1 2 C1.66 2 2.32 2 3 2 C2.67 4.31 2.34 6.62 2 9 C1.01 8.67 0.02 8.34 -1 8 C-0.67 5.36 -0.34 2.72 0 0 Z " fill="#BD810C" transform="translate(725,812)"/>
  <path d="M0 0 C2.31 0 4.62 0 7 0 C7 1.32 7 2.64 7 4 C4.69 3.67 2.38 3.34 0 3 C0 2.01 0 1.02 0 0 Z " fill="#B37B0D" transform="translate(867,812)"/>
  <path d="M0 0 C1.125 3.75 1.125 3.75 0 6 C-1.32 6 -2.64 6 -4 6 C-4 5.01 -4 4.02 -4 3 C-3.01 3 -2.02 3 -1 3 C-0.67 2.01 -0.34 1.02 0 0 Z " fill="#E69A0A" transform="translate(666,819)"/>
  <path d="M0 0 C2 3 2 3 2 6 C1.34 6 0.68 6 0 6 C-0.33 6.66 -0.66 7.32 -1 8 C-1.33 5.69 -1.66 3.38 -2 1 C-1.34 0.67 -0.68 0.34 0 0 Z " fill="#BF820C" transform="translate(708,814)"/>
  <path d="M0 0 C0.33 0.99 0.66 1.98 1 3 C3.64 3 6.28 3 9 3 C9 3.33 9 3.66 9 4 C5.37 4.33 1.74 4.66 -2 5 C-1 1 -1 1 0 0 Z " fill="#E59A0A" transform="translate(396,814)"/>
  <path d="M0 0 C0.93423645 3.01031744 1.04449911 3.86650268 0 7 C-0.99 7 -1.98 7 -3 7 C-1.125 1.125 -1.125 1.125 0 0 Z " fill="#DA930A" transform="translate(586,818)"/>
  <path d="M0 0 C2.35953094 2.35953094 2.49141413 3.77895617 3 7 C2.01 7 1.02 7 0 7 C-0.38133299 5.0085944 -0.71325582 3.00720923 -1 1 C-0.67 0.67 -0.34 0.34 0 0 Z " fill="#DA930A" transform="translate(877,818)"/>
<title>Title</title></svg>
